<svg width="504" height="375" viewBox="0 0 504 375" fill="none" xmlns="http://www.w3.org/2000/svg">
<path d="M503.268 329.541H0V329.792H503.268V329.541Z" fill="#EBEBEB"/>
<path d="M86.1412 339.122H52.8047V339.374H86.1412V339.122Z" fill="#EBEBEB"/>
<path d="M228.04 336.393H172.258V336.644H228.04V336.393Z" fill="#EBEBEB"/>
<path d="M110.909 345.102H91.5938V345.353H110.909V345.102Z" fill="#EBEBEB"/>
<path d="M431.449 339H387.977V339.252H431.449V339Z" fill="#EBEBEB"/>
<path d="M446.793 339H440.422V339.252H446.793V339Z" fill="#EBEBEB"/>
<path d="M326.17 342.536H279.023V342.787H326.17V342.536Z" fill="#EBEBEB"/>
<path d="M238.55 284.649H44.1982C42.6757 284.646 41.2164 284.039 40.1407 282.962C39.0651 281.884 38.4609 280.424 38.4609 278.901V5.697C38.4742 4.18319 39.0842 2.73574 40.1584 1.66906C41.2326 0.60237 42.6843 0.00259323 44.1982 0H238.55C240.075 0 241.537 0.60552 242.614 1.68335C243.692 2.76118 244.298 4.22304 244.298 5.74732V278.901C244.298 280.426 243.692 281.887 242.614 282.965C241.537 284.043 240.075 284.649 238.55 284.649ZM44.1982 0.201308C42.7424 0.203974 41.3471 0.784158 40.3187 1.81451C39.2902 2.84486 38.7126 4.24119 38.7126 5.697V278.901C38.7126 280.357 39.2902 281.753 40.3187 282.784C41.3471 283.814 42.7424 284.394 44.1982 284.397H238.55C240.007 284.394 241.403 283.814 242.433 282.784C243.464 281.754 244.043 280.358 244.046 278.901V5.697C244.043 4.24027 243.464 2.84396 242.433 1.8139C241.403 0.783831 240.007 0.203969 238.55 0.201308H44.1982Z" fill="#EBEBEB"/>
<path d="M456.274 284.649H261.911C260.388 284.646 258.928 284.04 257.85 282.962C256.773 281.885 256.167 280.425 256.164 278.901V5.697C256.18 4.18227 256.792 2.73484 257.868 1.66843C258.944 0.602018 260.397 0.00256495 261.911 0H456.274C457.786 0.00523852 459.235 0.606186 460.307 1.67259C461.379 2.73899 461.988 4.18493 462.001 5.697V278.901C462.001 280.422 461.398 281.881 460.325 282.958C459.251 284.035 457.794 284.643 456.274 284.649ZM261.911 0.201308C260.455 0.203969 259.058 0.783831 258.028 1.8139C256.998 2.84396 256.418 4.24027 256.416 5.697V278.901C256.418 280.358 256.998 281.754 258.028 282.784C259.058 283.814 260.455 284.394 261.911 284.397H456.274C457.73 284.394 459.127 283.814 460.157 282.784C461.187 281.754 461.767 280.358 461.769 278.901V5.697C461.767 4.24027 461.187 2.84396 460.157 1.8139C459.127 0.783831 457.73 0.203969 456.274 0.201308H261.911Z" fill="#EBEBEB"/>
<path d="M437.771 195.125H417.641V329.649H437.771V195.125Z" fill="#E6E6E6"/>
<path d="M432.468 329.649H437.762V311.33H426.922L432.468 329.649Z" fill="#F0F0F0"/>
<path d="M252.201 195.125H232.07V329.649H252.201V195.125Z" fill="#E6E6E6"/>
<path d="M437.766 195.125H247.57V318.406H437.766V195.125Z" fill="#F0F0F0"/>
<path d="M434.16 234.904H251.172V200.088H434.16V234.904ZM252.178 233.897H433.154V201.094H252.178V233.897Z" fill="#E6E6E6"/>
<path d="M401.947 211.102H286.94C281.776 211.102 276.875 206.924 273.281 199.567H415.595C412.042 206.924 407.11 211.102 401.947 211.102Z" fill="#E6E6E6"/>
<path d="M252.865 329.649H247.57V311.33H258.411L252.865 329.649Z" fill="#F0F0F0"/>
<path d="M434.16 274.18H251.172V239.364H434.16V274.18ZM252.178 273.173H433.154V240.37H252.178V273.173Z" fill="#E6E6E6"/>
<path d="M401.947 250.375H286.94C281.776 250.375 276.875 246.198 273.281 238.84H415.595C412.042 246.198 407.11 250.375 401.947 250.375Z" fill="#E6E6E6"/>
<path d="M434.16 313.445H251.172V278.629H434.16V313.445ZM252.178 312.438H433.154V279.635H252.178V312.438Z" fill="#E6E6E6"/>
<path d="M401.947 289.641H286.94C281.776 289.641 276.875 285.474 273.281 278.106H415.595C412.042 285.474 407.11 289.641 401.947 289.641Z" fill="#E6E6E6"/>
<path d="M142.468 163.239L158.573 176.868C157.758 275.69 161.391 281.044 161.472 298.045H143.052C140.496 215.328 133.259 184.467 142.468 163.239Z" fill="#E0E0E0"/>
<path d="M150.538 327.487C124.62 327.487 102.748 316.968 97.433 302.746C96.0837 298.827 94.2223 295.105 91.8971 291.674L91.4844 291.1H209.591L209.189 291.674C206.864 295.105 205.002 298.827 203.653 302.746C198.288 316.968 176.466 327.487 150.538 327.487Z" fill="#E6E6E6"/>
<path d="M209.836 294.672H91.2458C89.6351 294.681 88.0676 294.152 86.7914 293.169C85.5152 292.187 84.6033 290.806 84.2 289.247C83.9166 288.173 83.8847 287.049 84.1069 285.961C84.3291 284.873 84.7994 283.85 85.4812 282.974C86.1629 282.097 87.0378 281.39 88.0376 280.907C89.0375 280.424 90.1354 280.178 91.2458 280.188H209.836C210.942 280.185 212.034 280.437 213.028 280.924C214.021 281.41 214.889 282.118 215.566 282.994C216.242 283.87 216.707 284.889 216.927 285.973C217.146 287.057 217.114 288.177 216.831 289.247C216.433 290.8 215.53 292.176 214.263 293.158C212.997 294.14 211.439 294.673 209.836 294.672Z" fill="#F5F5F5"/>
<path d="M151.991 198.287C154.396 172.519 169.706 171.664 207.008 196.324C191.558 258.135 142.932 295.176 151.991 198.287Z" fill="#E0E0E0"/>
<path d="M146.433 159.586C142.044 137.271 163.836 106.611 201.42 118.096C203.886 177.009 162.95 243.672 146.433 159.586Z" fill="#E0E0E0"/>
<path d="M166.135 155.901C171.701 127.97 137.479 80.0685 102.774 86.3393C77.0669 127.658 140.257 285.613 166.135 155.901Z" fill="#E0E0E0"/>
<path d="M152.33 198.501C139.376 159.558 99.8389 148.395 74.5547 192.602C113.417 263.956 183.553 292.35 152.33 198.501Z" fill="#E0E0E0"/>
<path d="M282.961 20.9257V172.581H418.843V20.9257H282.961Z" fill="#EBEBEB"/>
<path d="M281.719 20.9257V172.581H282.947V20.9257H281.719Z" fill="#E0E0E0"/>
<path d="M408.767 30.991H293.016V162.515H408.767V30.991Z" fill="#F5F5F5"/>
<path d="M335.195 27.2983H302.594V72.9246H335.195V27.2983Z" fill="white"/>
<path d="M374.187 27.3064H341.595L339.25 72.9327H371.842L374.187 27.3064Z" fill="white"/>
<path d="M334.634 79.5977H302.033L299.688 125.234H332.289L334.634 79.5977Z" fill="white"/>
<path d="M412.279 28.0289L379.719 26.6016L377.721 72.1841L410.281 73.6114L412.279 28.0289Z" fill="white"/>
<path d="M377.492 89.1257L344.914 90.0698L346.236 135.677L378.814 134.733L377.492 89.1257Z" fill="white"/>
<path d="M56.4942 33.6778H213.383C214.229 33.6778 215.041 33.3416 215.639 32.7433C216.238 32.1449 216.574 31.3333 216.574 30.4871C216.574 30.0685 216.491 29.6541 216.331 29.2676C216.17 28.881 215.935 28.5299 215.639 28.2344C215.342 27.939 214.99 27.7049 214.603 27.5456C214.216 27.3864 213.802 27.3051 213.383 27.3064H56.4942C55.6559 27.3144 54.8546 27.653 54.2646 28.2486C53.6747 28.8442 53.3437 29.6487 53.3438 30.4871C53.3437 31.3264 53.6743 32.1319 54.264 32.7291C54.8537 33.3264 55.655 33.6672 56.4942 33.6778Z" fill="#E0E0E0"/>
<path d="M56.4942 47.1871H213.383C214.229 47.1871 215.041 46.8509 215.639 46.2526C216.238 45.6542 216.574 44.8426 216.574 43.9964C216.574 43.1502 216.238 42.3386 215.639 41.7402C215.041 41.1418 214.229 40.8057 213.383 40.8057H56.4942C55.655 40.8163 54.8537 41.1571 54.264 41.7543C53.6743 42.3516 53.3437 43.1571 53.3438 43.9964C53.3437 44.8357 53.6743 45.6412 54.264 46.2385C54.8537 46.8357 55.655 47.1765 56.4942 47.1871Z" fill="#E0E0E0"/>
<path d="M213.394 54.3132H56.4954C54.7332 54.3132 53.3047 55.7395 53.3047 57.4989C53.3047 59.2583 54.7332 60.6846 56.4954 60.6846H213.394C215.157 60.6846 216.585 59.2583 216.585 57.4989C216.585 55.7395 215.157 54.3132 213.394 54.3132Z" fill="#E0E0E0"/>
<path d="M69.3626 33.6778H226.272C226.694 33.6831 227.112 33.6045 227.503 33.4464C227.895 33.2883 228.251 33.054 228.55 32.757C228.85 32.4601 229.088 32.1064 229.25 31.7167C229.411 31.327 229.494 30.909 229.493 30.4871C229.494 30.069 229.412 29.6548 229.253 29.2683C229.094 28.8818 228.86 28.5307 228.564 28.235C228.268 27.9394 227.917 27.7052 227.531 27.5458C227.144 27.3864 226.73 27.3051 226.312 27.3064H69.3626C68.9441 27.3051 68.5294 27.3864 68.1423 27.5456C67.7553 27.7049 67.4034 27.939 67.107 28.2344C66.8106 28.5299 66.5754 28.881 66.4149 29.2676C66.2545 29.6541 66.1719 30.0685 66.1719 30.4871C66.1719 31.3333 66.508 32.1449 67.1064 32.7433C67.7048 33.3416 68.5164 33.6778 69.3626 33.6778Z" fill="#F5F5F5"/>
<path d="M69.3626 47.1871H226.272C226.693 47.1924 227.112 47.1138 227.503 46.9557C227.895 46.7976 228.251 46.5633 228.55 46.2663C228.85 45.9694 229.088 45.6158 229.25 45.226C229.411 44.8363 229.494 44.4183 229.493 43.9964C229.494 43.5778 229.413 43.1632 229.253 42.7761C229.094 42.3891 228.86 42.0372 228.564 41.7408C228.269 41.4444 227.918 41.2092 227.531 41.0487C227.145 40.8883 226.73 40.8057 226.312 40.8057H69.3626C68.5164 40.8057 67.7048 41.1418 67.1064 41.7402C66.508 42.3386 66.1719 43.1502 66.1719 43.9964C66.1719 44.8426 66.508 45.6542 67.1064 46.2526C67.7048 46.8509 68.5164 47.1871 69.3626 47.1871Z" fill="#F5F5F5"/>
<path d="M226.262 54.3132H69.3626C67.6004 54.3132 66.1719 55.7395 66.1719 57.4989C66.1719 59.2583 67.6004 60.6846 69.3626 60.6846H226.262C228.024 60.6846 229.452 59.2583 229.452 57.4989C229.452 55.7395 228.024 54.3132 226.262 54.3132Z" fill="#F5F5F5"/>
<path d="M251.634 374.996C359.416 374.996 446.791 369.895 446.791 363.602C446.791 357.31 359.416 352.208 251.634 352.208C143.852 352.208 56.4766 357.31 56.4766 363.602C56.4766 369.895 143.852 374.996 251.634 374.996Z" fill="#F5F5F5"/>
<path d="M393.316 76.938C391.364 76.5254 388.857 73.7574 388.575 69.0569C388.233 63.0176 394.766 62.6754 397.926 64.1148C401.087 65.5541 399.335 73.6064 393.316 76.938Z" fill="#444444"/>
<path d="M442.88 340.339L435.362 342.886L428.336 325.613L435.845 323.067L442.88 340.339Z" fill="#FFC3BD"/>
<path d="M434.175 342.313L443.324 339.213C443.467 339.158 443.626 339.16 443.768 339.218C443.91 339.276 444.025 339.386 444.089 339.525L447.209 346.017C447.282 346.184 447.319 346.364 447.319 346.545C447.319 346.727 447.281 346.906 447.208 347.072C447.136 347.239 447.029 347.388 446.896 347.511C446.763 347.635 446.606 347.729 446.434 347.789C443.475 348.735 441.281 349.289 437.577 350.547C435.292 351.322 430.732 352.983 427.582 354.05C424.431 355.117 423.254 352.037 424.472 351.262C429.957 347.97 431.618 345.585 433.067 343.209C433.321 342.791 433.713 342.474 434.175 342.313Z" fill="#444444"/>
<path opacity="0.2" d="M435.845 323.067L428.336 325.613L431.959 334.521L439.478 331.975L435.845 323.067Z" fill="black"/>
<path d="M395.297 106.019H401.336C399.323 107.73 399.504 153.749 401.205 175.842C396.384 176.144 387.546 174.463 387.546 174.463C387.546 174.463 386.701 140.02 395.297 106.019Z" fill="#00BFE9"/>
<path opacity="0.4" d="M395.297 106.019H401.336C399.323 107.73 399.504 153.749 401.205 175.842C396.384 176.144 387.546 174.463 387.546 174.463C387.546 174.463 386.701 140.02 395.297 106.019Z" fill="black"/>
<path d="M392.08 355.449H384.088L382.891 336.948H390.872L392.08 355.449Z" fill="#FFC3BD"/>
<path opacity="0.2" d="M390.872 336.957H382.891L383.515 346.489H391.497L390.872 336.957Z" fill="black"/>
<path d="M378.994 343.228L393.247 343.107C393.247 343.107 390.851 291.039 392.361 266.248C392.824 258.699 392.733 248.241 394.857 236.988C397.555 222.806 401.007 207.456 403.856 195.448C406.875 182.786 405.285 173.828 405.285 173.828L377.213 172.167C377.213 172.167 369.955 238.598 369.945 262.936C369.925 288.311 378.994 343.228 378.994 343.228Z" fill="#444444"/>
<path d="M383.133 354.521H392.867C393.021 354.515 393.173 354.568 393.29 354.669C393.408 354.77 393.483 354.911 393.501 355.065L394.407 362.161C394.422 362.342 394.4 362.524 394.341 362.696C394.282 362.868 394.188 363.025 394.065 363.159C393.942 363.292 393.792 363.399 393.626 363.471C393.459 363.544 393.28 363.581 393.098 363.58C389.968 363.53 387.703 363.349 383.757 363.349C381.332 363.349 372.565 363.6 369.213 363.6C365.861 363.6 365.74 360.289 367.14 359.987C373.42 358.638 379.651 356.786 381.795 355.015C382.169 354.697 382.643 354.522 383.133 354.521Z" fill="#444444"/>
<path d="M377.857 344.961H396.196L396.085 339.817L376.891 339.485L377.857 344.961Z" fill="#00BFE9"/>
<path d="M380.356 355.911C379.828 355.957 379.3 355.814 378.866 355.508C378.728 355.385 378.627 355.225 378.574 355.047C378.52 354.87 378.517 354.681 378.564 354.502C378.576 354.388 378.616 354.28 378.681 354.186C378.746 354.093 378.834 354.018 378.937 353.968C379.863 353.505 382.289 355.095 382.571 355.277C382.599 355.298 382.621 355.328 382.632 355.363C382.643 355.397 382.642 355.434 382.631 355.468C382.62 355.503 382.6 355.536 382.574 355.562C382.548 355.588 382.515 355.608 382.48 355.619C381.784 355.792 381.072 355.889 380.356 355.911ZM379.35 354.26C379.263 354.259 379.177 354.276 379.098 354.31C379.058 354.333 379.025 354.365 379 354.404C378.976 354.442 378.961 354.486 378.957 354.532C378.928 354.653 378.931 354.779 378.964 354.899C378.998 355.018 379.061 355.128 379.148 355.216C379.551 355.589 380.598 355.639 381.977 355.367C381.177 354.833 380.276 354.469 379.329 354.3L379.35 354.26Z" fill="#00BFE9"/>
<path d="M382.481 355.639C382.455 355.649 382.426 355.649 382.4 355.639C381.615 355.196 380.176 353.445 380.438 352.549C380.48 352.409 380.565 352.287 380.68 352.198C380.796 352.11 380.936 352.06 381.082 352.056C381.222 352.038 381.365 352.051 381.5 352.093C381.635 352.134 381.76 352.204 381.867 352.297C382.722 353.062 382.692 355.317 382.692 355.458C382.693 355.493 382.684 355.527 382.666 355.557C382.648 355.587 382.622 355.612 382.592 355.629C382.557 355.644 382.518 355.648 382.481 355.639ZM381.182 352.398H381.092C380.84 352.398 380.81 352.549 380.8 352.589C380.649 353.122 381.545 354.441 382.3 355.065C382.337 354.176 382.09 353.298 381.595 352.559C381.534 352.501 381.461 352.456 381.381 352.428C381.301 352.401 381.216 352.39 381.132 352.398H381.182Z" fill="#00BFE9"/>
<path opacity="0.2" d="M394.859 237.029C397.556 222.847 401.009 207.497 403.857 195.489L400.747 189.229C394.073 197.583 393.057 223.159 394.859 237.029Z" fill="black"/>
<path d="M392.367 173.124C392.367 173.124 401.557 241.458 405.694 264.578C410.233 289.892 427.676 334.029 427.676 334.029L441.436 329.359C441.436 329.359 430.595 292.741 426.791 267.96C422.453 239.777 419.916 174.734 419.916 174.734L392.367 173.124Z" fill="#444444"/>
<path d="M426.165 334.863L443.417 329.015L441.666 324.134L423.508 329.941L426.165 334.863Z" fill="#00BFE9"/>
<path d="M432.011 344.528C431.526 344.744 430.978 344.776 430.471 344.618C430.301 344.545 430.155 344.426 430.049 344.275C429.942 344.124 429.879 343.947 429.867 343.763C429.843 343.65 429.847 343.534 429.879 343.423C429.91 343.313 429.968 343.211 430.048 343.129C430.773 342.404 433.561 343.129 433.883 343.229C433.919 343.236 433.952 343.257 433.974 343.287C433.996 343.316 434.007 343.353 434.004 343.39C434.007 343.428 433.999 343.467 433.981 343.501C433.963 343.534 433.936 343.562 433.903 343.581C433.312 343.971 432.677 344.288 432.011 344.528ZM430.511 343.28C430.427 343.302 430.35 343.348 430.29 343.41C430.259 343.443 430.237 343.484 430.226 343.528C430.216 343.572 430.217 343.618 430.229 343.662C430.238 343.788 430.28 343.909 430.351 344.013C430.421 344.117 430.518 344.201 430.632 344.256C431.125 344.477 432.121 344.195 433.329 343.491C432.414 343.228 431.455 343.156 430.511 343.28Z" fill="#00BFE9"/>
<path d="M433.864 343.601H433.813C432.938 343.419 431.035 342.202 430.985 341.276C430.979 341.128 431.02 340.983 431.101 340.861C431.183 340.738 431.3 340.644 431.438 340.591C431.566 340.534 431.705 340.505 431.845 340.505C431.986 340.505 432.125 340.534 432.253 340.591C433.26 341.044 434.004 343.258 434.035 343.349C434.051 343.38 434.06 343.415 434.06 343.45C434.06 343.485 434.051 343.519 434.035 343.55C434.015 343.576 433.988 343.594 433.957 343.603C433.927 343.613 433.894 343.612 433.864 343.601ZM431.609 340.923H431.528C431.307 341.034 431.307 341.155 431.307 341.205C431.307 341.749 432.595 342.735 433.511 343.087C433.27 342.453 432.726 341.205 432.052 340.923C431.982 340.894 431.906 340.879 431.83 340.879C431.754 340.879 431.679 340.894 431.609 340.923Z" fill="#00BFE9"/>
<path d="M385.05 115.469C381.507 119.978 377.863 124.175 373.978 128.322C370.076 132.507 365.939 136.466 361.588 140.179C360.44 141.105 359.323 142.042 358.085 142.927C356.659 144.052 355.092 144.986 353.425 145.705C350.015 147.03 346.311 147.406 342.705 146.792C339.552 146.285 336.496 145.293 333.646 143.853C332.293 143.19 330.982 142.444 329.721 141.619C328.464 140.789 327.261 139.881 326.117 138.901L329.399 133.868C334.008 135.761 339.232 137.271 343.591 137.24C345.489 137.297 347.37 136.856 349.046 135.962C349.849 135.459 350.6 134.879 351.291 134.231C352.247 133.436 353.183 132.53 354.119 131.664C356.001 129.862 357.863 128.01 359.675 126.048C361.487 124.085 363.309 122.132 365.09 120.119C368.643 116.093 372.206 111.956 375.588 107.88L385.05 115.469Z" fill="#FFC3BD"/>
<path d="M384.14 121.699C380.972 125.304 377.508 128.638 373.783 131.664L371.116 129.188L361.594 120.36C364.232 115.337 367.774 110.843 372.042 107.104C379.53 100.431 388.408 102.555 389.424 110.889C389.807 113.989 387.27 118.015 384.14 121.699Z" fill="#00BFE9"/>
<path opacity="0.2" d="M384.142 121.699C380.974 125.304 377.51 128.637 373.785 131.664L371.117 129.187C373.634 123.953 382.481 114.744 384.142 121.699Z" fill="black"/>
<path d="M374.067 183.973C377.852 185.563 383.64 186.62 388.582 185.09C388.249 177.611 388.36 135.437 395.809 105.976H400.217C398.204 107.617 392.064 162.725 394.077 185.654C402.522 187.415 419.12 186.066 421.737 183.479C421.405 179.876 419.583 161.879 419.835 149.318C419.945 143.963 420.187 138.054 420.74 131.854C421.479 122.987 422.885 114.189 424.948 105.533C424.948 105.533 419.915 104.195 414.148 103.329C413.01 103.158 411.853 103.007 410.715 102.886C404.702 102.181 398.653 101.821 392.598 101.809C391.853 101.809 391.118 101.869 390.403 101.92C386.997 102.167 383.608 102.624 380.258 103.289C380.258 103.289 369.478 139.514 374.067 183.973Z" fill="#00BFE9"/>
<path opacity="0.2" d="M418.94 118.025C416.836 124.397 416.927 133.224 419.947 137.381C420.067 137.552 420.198 137.713 420.319 137.854C420.44 135.901 420.591 133.915 420.772 131.895C421.044 128.805 421.396 125.635 421.829 122.424L418.94 118.025Z" fill="black"/>
<path d="M409.655 82.405C408.296 88.1725 406.766 98.7914 410.661 102.928C408.78 104.699 406.536 106.039 404.086 106.855C401.635 107.672 399.036 107.947 396.469 107.659C391.436 107.246 391.326 103.723 392.513 101.851C399.086 100.684 399.096 95.8121 398.12 91.2525L409.655 82.405Z" fill="#FFC3BD"/>
<path opacity="0.2" d="M404.966 86.0171L398.172 91.241C398.411 92.3102 398.559 93.3979 398.615 94.4921C401.111 94.2808 404.654 91.7543 404.986 89.1675C405.173 88.125 405.166 87.0571 404.966 86.0171Z" fill="black"/>
<path d="M410.663 72.79C409.989 80.7014 409.989 85.3617 405.913 89.2469C399.773 95.0848 390.13 90.9983 388.439 83.0064C386.919 75.7996 388.278 64.0835 396.079 61.2954C397.826 60.7023 399.694 60.5552 401.512 60.8676C403.331 61.1799 405.042 61.9417 406.491 63.0838C407.94 64.2259 409.081 65.7121 409.81 67.4072C410.538 69.1023 410.832 70.9526 410.663 72.79Z" fill="#FFC3BD"/>
<path d="M410.208 77.7857C408.255 77.3831 405.739 74.605 405.467 69.9045C405.115 63.8653 411.657 63.5231 414.807 64.9624C417.958 66.4018 416.217 74.4843 410.208 77.7857Z" fill="#444444"/>
<path d="M406.505 67.3765C402.881 68.8057 388.779 68.2924 386.565 64.6789C384.351 61.0655 413.681 64.5481 406.505 67.3765Z" fill="#444444"/>
<path d="M407.935 66.4311C404.211 67.5383 390.2 65.8272 388.308 62.0426C386.416 58.258 415.344 64.1664 407.935 66.4311Z" fill="#444444"/>
<path d="M409.816 65.8481C406.012 66.6131 392.212 63.6438 390.692 59.6982C389.172 55.7526 417.396 64.3182 409.816 65.8481Z" fill="#444444"/>
<path d="M412.275 66.2293C408.42 66.7125 394.711 61.5489 393.463 57.5027C392.215 53.4564 419.945 65.2731 412.275 66.2293Z" fill="#444444"/>
<path d="M413.774 65.425C409.888 65.5156 396.824 60.1709 395.988 56.024C395.153 51.8771 421.504 65.2036 413.774 65.425Z" fill="#444444"/>
<path d="M414.217 65.3533C411.016 64.7393 399.562 57.8143 399.914 54.2814C400.307 50.3257 420.649 66.5812 414.217 65.3533Z" fill="#444444"/>
<path d="M413.952 78.9909C413.716 79.94 413.291 80.832 412.703 81.6137C412.115 82.3953 411.376 83.0505 410.529 83.5404C408.255 84.8388 406.413 82.9466 406.503 80.4604C406.503 78.2158 407.792 74.8439 410.358 74.5621C410.918 74.5157 411.481 74.6066 411.998 74.8271C412.515 75.0477 412.97 75.3911 413.325 75.8275C413.679 76.2639 413.921 76.7802 414.03 77.3315C414.139 77.8827 414.112 78.4524 413.952 78.9909Z" fill="#FFC3BD"/>
<path d="M398.583 74.4828C398.583 75.127 398.211 75.6303 397.788 75.6202C397.365 75.6102 397.043 75.0565 397.063 74.4124C397.084 73.7682 397.426 73.2549 397.848 73.275C398.271 73.2951 398.583 73.8084 398.583 74.4828Z" fill="#444444"/>
<path d="M391.357 74.111C391.357 74.7551 390.984 75.2685 390.562 75.2483C390.139 75.2282 389.817 74.6847 389.837 74.0405C389.857 73.3963 390.199 72.8931 390.622 72.9132C391.045 72.9333 391.367 73.4768 391.357 74.111Z" fill="#444444"/>
<path d="M393.654 74.542C392.843 76.474 391.765 78.2831 390.453 79.9169C390.875 80.2478 391.363 80.4839 391.884 80.609C392.405 80.7341 392.947 80.7452 393.473 80.6416L393.654 74.542Z" fill="#FF5652"/>
<path d="M396.173 82.536C395.895 82.5563 395.616 82.5563 395.338 82.536C395.313 82.536 395.289 82.5311 395.266 82.5213C395.243 82.5116 395.223 82.4973 395.206 82.4794C395.189 82.4615 395.176 82.4403 395.167 82.4172C395.159 82.394 395.155 82.3694 395.157 82.3448C395.156 82.3201 395.161 82.2957 395.171 82.273C395.181 82.2504 395.195 82.2299 395.213 82.213C395.231 82.196 395.252 82.1829 395.275 82.1744C395.299 82.1659 395.323 82.1622 395.348 82.1636C396.141 82.2202 396.937 82.0852 397.667 81.7698C398.398 81.4545 399.042 80.9682 399.545 80.3518C399.58 80.3186 399.627 80.3 399.676 80.3C399.724 80.3 399.771 80.3186 399.807 80.3518C399.846 80.3835 399.873 80.4284 399.882 80.4783C399.892 80.5282 399.883 80.5798 399.857 80.6236C399.405 81.1763 398.846 81.631 398.212 81.9598C397.579 82.2886 396.885 82.4847 396.173 82.536Z" fill="#444444"/>
<path d="M400.912 72.1973C400.844 72.2042 400.776 72.1929 400.714 72.1646C400.652 72.1363 400.599 72.092 400.56 72.0362C400.3 71.6336 399.948 71.2985 399.534 71.0588C399.119 70.819 398.653 70.6814 398.174 70.6572C398.074 70.6574 397.977 70.6188 397.904 70.5495C397.831 70.4802 397.787 70.3854 397.782 70.2848C397.779 70.2356 397.786 70.1863 397.803 70.14C397.82 70.0937 397.847 70.0513 397.881 70.0155C397.914 69.9797 397.955 69.9512 398.001 69.9317C398.046 69.9123 398.095 69.9023 398.144 69.9023C398.746 69.9273 399.333 70.0945 399.858 70.3902C400.383 70.6858 400.83 71.1016 401.164 71.6034C401.221 71.6858 401.245 71.7869 401.23 71.8862C401.215 71.9854 401.162 72.0751 401.083 72.1369C401.033 72.173 400.974 72.1939 400.912 72.1973Z" fill="#444444"/>
<path d="M388.286 71.4638C388.217 71.4876 388.143 71.4876 388.074 71.4638C388.029 71.4415 387.989 71.4103 387.957 71.3721C387.924 71.3339 387.899 71.2895 387.884 71.2415C387.869 71.1936 387.864 71.143 387.869 71.093C387.874 71.043 387.889 70.9945 387.913 70.9505C388.174 70.4157 388.562 69.9528 389.043 69.602C389.523 69.2511 390.082 69.023 390.671 68.9374C390.772 68.9317 390.871 68.9651 390.948 69.0308C391.025 69.0964 391.074 69.1891 391.084 69.2897C391.089 69.3386 391.085 69.3882 391.072 69.4355C391.058 69.4829 391.035 69.527 391.004 69.5654C390.973 69.6038 390.935 69.6356 390.892 69.6592C390.848 69.6827 390.801 69.6974 390.752 69.7024C390.285 69.7704 389.841 69.9531 389.462 70.2341C389.083 70.5151 388.779 70.8857 388.578 71.3128C388.544 71.3586 388.5 71.3961 388.449 71.4222C388.399 71.4484 388.343 71.4626 388.286 71.4638Z" fill="#444444"/>
<path d="M429.485 110.88C430.723 113.668 431.689 116.325 432.686 119.073C433.682 121.821 434.538 124.589 435.343 127.407C437.026 133.149 438.142 139.042 438.674 145.001L438.785 147.357V148.031V148.957C438.785 149.561 438.654 150.074 438.574 150.618C438.198 152.405 437.603 154.14 436.802 155.781C435.449 158.568 433.835 161.22 431.981 163.703C428.509 168.397 424.607 172.757 420.325 176.727L415.766 172.822C418.695 168.202 421.624 163.441 424.12 158.73C425.33 156.501 426.376 154.187 427.25 151.805C427.58 150.87 427.806 149.901 427.925 148.917C427.925 148.766 427.925 148.584 427.925 148.484C427.92 148.444 427.92 148.403 427.925 148.363V148.212V147.981L427.693 146.139C426.82 140.949 425.548 135.834 423.888 130.839C423.083 128.273 422.187 125.706 421.281 123.149C420.376 120.593 419.369 118.006 418.433 115.62L429.485 110.88Z" fill="#FFC3BD"/>
<path d="M427.323 106.742C433.775 110.959 436.765 128.141 436.765 128.141L421.566 134.703C417.954 129.674 415.425 123.95 414.138 117.894C411.984 106.953 420.731 102.413 427.323 106.742Z" fill="#00BFE9"/>
<path d="M419.621 171.655L410.25 171.292L415.182 180.351C415.182 180.351 421.976 178.479 421.302 174.765L419.621 171.655Z" fill="#FFC3BD"/>
<path d="M405.258 175.62L409.676 182.888L415.182 180.311L410.25 171.292L405.258 175.62Z" fill="#FFC3BD"/>
<path d="M329.728 134.169L322.783 129.821L321.625 139.886C321.625 139.886 328.329 142.292 329.919 138.88L329.728 134.169Z" fill="#FFC3BD"/>
<path d="M315.938 131.27L314.016 138.819L321.625 139.926L322.783 129.821L315.938 131.27Z" fill="#FFC3BD"/>
<path d="M263.531 79.8984C257.733 86.0282 249.047 101.942 255.71 107.528C258.032 108.528 260.528 109.058 263.056 109.088C265.583 109.117 268.092 108.645 270.436 107.699L268.876 84.7197C268.876 84.7197 268.06 75.8722 263.531 79.8984Z" fill="#444444"/>
<path d="M258.909 132.583C258.12 135.729 257.172 138.833 256.07 141.883C254.983 144.903 253.735 147.872 252.366 150.801C251.003 153.762 249.439 156.628 247.686 159.377C246.8 160.766 245.844 162.124 244.837 163.463C244.334 164.127 243.831 164.792 243.267 165.476C242.995 165.798 242.704 166.11 242.422 166.432L241.999 166.916C241.718 167.223 241.416 167.509 241.093 167.771C240.357 168.356 239.507 168.781 238.597 169.019C237.768 169.226 236.909 169.284 236.06 169.19C234.817 169.039 233.614 168.649 232.517 168.043C230.891 167.136 229.386 166.026 228.038 164.741C225.656 162.489 223.458 160.048 221.466 157.444C217.625 152.425 214.153 147.133 211.078 141.611L214.752 139.226C216.624 141.591 218.547 144.007 220.509 146.332C222.472 148.657 224.445 150.972 226.549 153.146C228.505 155.308 230.614 157.326 232.86 159.185C233.808 159.979 234.849 160.655 235.96 161.198C236.229 161.335 236.524 161.414 236.825 161.43C236.825 161.43 236.765 161.43 236.594 161.43C236.43 161.467 236.273 161.532 236.131 161.621C236.116 161.644 236.095 161.661 236.07 161.672L236.393 161.259C236.614 160.987 236.835 160.725 237.047 160.444C237.47 159.88 237.882 159.316 238.285 158.722C239.08 157.555 239.845 156.347 240.56 155.079C241.989 152.572 243.267 149.925 244.475 147.238C245.683 144.55 246.73 141.762 247.716 138.954C248.702 136.146 249.608 133.237 250.363 130.529L258.909 132.583Z" fill="#FF8B7B"/>
<path d="M265.225 134.815C264.289 137.442 261.109 142.153 258.612 145.635C256.791 148.152 255.341 150.024 255.341 150.024L253.902 149.017L241.984 140.915C244.229 134.101 247.208 126.823 255.522 124.81C260.756 123.562 266.896 130.125 265.225 134.815Z" fill="#00BFE9"/>
<g opacity="0.5">
<path d="M265.225 134.815C264.289 137.442 261.109 142.153 258.612 145.635C256.791 148.152 255.341 150.024 255.341 150.024L253.902 149.017L241.984 140.915C244.229 134.1 247.208 126.823 255.522 124.81C260.756 123.562 266.896 130.124 265.225 134.815Z" fill="white"/>
</g>
<path opacity="0.3" d="M258.609 145.637C256.787 148.153 255.338 150.025 255.338 150.025L253.898 149.019C254.613 146.301 255.912 142.043 257.804 140.352C258.445 142.036 258.719 143.838 258.609 145.637Z" fill="black"/>
<path d="M215.55 141.076L215.943 133.587L206.984 134.835C206.984 134.835 209.511 140.583 212.178 142.988L215.55 141.076Z" fill="#FF8B7B"/>
<path d="M213.045 130.467L206.562 132.631L206.985 134.836L215.943 133.588L213.045 130.467Z" fill="#FF8B7B"/>
<path d="M287.569 355.227L279.084 356.052L273.438 336.153L281.923 335.337L287.569 355.227Z" fill="#FF8B7B"/>
<path d="M348.809 336.094L340.948 339.707L330.047 322.666L337.908 319.053L348.809 336.094Z" fill="#FF8B7B"/>
<path d="M338.603 337.06L347.259 332.561C347.407 332.483 347.578 332.462 347.741 332.501C347.904 332.54 348.047 332.636 348.145 332.772L352.684 339.073C352.792 339.237 352.865 339.421 352.897 339.615C352.929 339.808 352.92 340.006 352.871 340.196C352.821 340.386 352.733 340.563 352.61 340.717C352.488 340.87 352.335 340.996 352.161 341.086C349.141 342.596 347.591 343.18 343.796 345.112C341.471 346.33 336.489 349.37 333.268 351.041C330.047 352.712 328.235 349.632 329.403 348.645C334.748 344.216 336.449 340.915 337.596 338.157C337.803 337.691 338.156 337.306 338.603 337.06Z" fill="#444444"/>
<path d="M277.564 353.463H287.871C288.055 353.466 288.233 353.528 288.378 353.64C288.524 353.753 288.628 353.91 288.677 354.087L290.911 362.21C290.966 362.401 290.976 362.603 290.939 362.799C290.902 362.995 290.819 363.179 290.698 363.337C290.576 363.494 290.419 363.621 290.239 363.707C290.06 363.793 289.862 363.835 289.663 363.831C286.039 363.831 284.328 363.831 279.809 363.831H265.969C262.225 363.831 261.44 360.036 262.949 359.694C269.905 358.154 273.921 356.03 276.034 354.007C276.24 353.818 276.481 353.673 276.744 353.58C277.007 353.487 277.286 353.447 277.564 353.463Z" fill="#444444"/>
<path opacity="0.2" d="M273.438 336.153L276.356 346.409H285.073L281.933 335.337L273.438 336.153Z" fill="black"/>
<path opacity="0.2" d="M337.918 319.053L330.047 322.666L335.673 331.453L343.534 327.84L337.918 319.053Z" fill="black"/>
<path d="M299.045 172.249L264.188 176.708C249.533 127.388 253.217 125.596 253.217 125.596C253.217 125.596 259.035 123.583 264.973 122.033C265.869 121.801 266.775 121.58 267.661 121.379C272.885 120.336 278.175 119.663 283.494 119.366L285.839 119.215C290.077 119.029 294.322 119.096 298.551 119.416C297.907 125.767 297.444 131.142 297.152 135.843C296.76 141.962 296.639 146.915 296.73 151.202C296.942 158.268 297.716 165.306 299.045 172.249Z" fill="#00BFE9"/>
<g opacity="0.5">
<path d="M299.045 172.249L264.188 176.708C249.533 127.387 253.217 125.596 253.217 125.596C253.217 125.596 259.035 123.583 264.973 122.032C265.869 121.801 266.775 121.579 267.661 121.378C272.885 120.336 278.175 119.663 283.494 119.365L285.839 119.214C290.077 119.028 294.322 119.095 298.551 119.415C297.907 125.767 297.444 131.142 297.152 135.842C296.76 141.962 296.639 146.914 296.73 151.202C296.942 158.268 297.716 165.305 299.045 172.249Z" fill="white"/>
</g>
<path opacity="0.3" d="M296.728 151.18C294.372 146.148 293.225 135.166 294.715 131.402L297.15 135.821C296.758 141.92 296.637 146.872 296.728 151.18Z" fill="black"/>
<path d="M279.66 108.805C279.982 113.113 280.998 117.501 283.495 119.343C279.587 120.513 275.96 122.468 272.835 125.091C268.558 122.836 267.672 121.376 267.672 121.376C273.178 119.293 272.795 115.508 270.46 109.429L274.758 107.114C275.128 106.704 275.611 106.412 276.146 106.274C276.681 106.137 277.245 106.159 277.768 106.34C278.29 106.52 278.748 106.85 279.084 107.288C279.421 107.726 279.621 108.254 279.66 108.805Z" fill="#FF8B7B"/>
<path d="M268.749 117.936C267.229 117.242 264.381 121.006 263.998 122.013C263.616 123.019 265.166 123.331 265.005 124.66C264.844 125.988 265.73 127.166 268.357 128.203C270.984 129.24 276.188 128.615 277.919 126.039C279.65 123.462 290.44 121.399 288.93 118.832C287.421 116.265 286.253 117.705 285.186 115.138C284.119 112.571 279.6 115.027 278.14 116.366C276.681 117.705 275.151 120.845 268.749 117.936Z" fill="#00BFE9"/>
<path opacity="0.2" d="M274.782 107.104C275.13 106.72 275.577 106.439 276.074 106.293C276.571 106.147 277.099 106.142 277.599 106.277C278.099 106.413 278.552 106.684 278.908 107.061C279.263 107.437 279.508 107.905 279.614 108.412C277.983 111.709 275.351 114.404 272.095 116.112C271.98 113.8 271.433 111.53 270.484 109.419L274.782 107.104Z" fill="black"/>
<path d="M286.339 95.2988C284.205 103.623 283.48 107.186 278.397 110.689C270.748 115.953 260.994 111.514 260.602 102.727C260.25 94.8157 263.803 82.5359 272.68 80.7745C274.638 80.3746 276.665 80.4818 278.569 81.0861C280.474 81.6904 282.192 82.7717 283.561 84.2272C284.929 85.6826 285.903 87.4639 286.389 89.4017C286.876 91.3396 286.858 93.3696 286.339 95.2988Z" fill="#FF8B7B"/>
<path d="M286.74 103.494C286.396 104.242 285.908 104.914 285.303 105.472C284.698 106.029 283.989 106.462 283.217 106.745C281.143 107.5 279.946 105.678 280.389 103.645C280.791 101.813 282.351 99.2064 284.495 99.3473C284.961 99.3864 285.411 99.541 285.802 99.7971C286.194 100.053 286.515 100.403 286.738 100.814C286.961 101.226 287.078 101.686 287.078 102.154C287.078 102.622 286.962 103.082 286.74 103.494Z" fill="#FF8B7B"/>
<path d="M265.333 85.7467C269.419 84.9112 279.233 85.6057 280.089 89.6218C276.596 92.883 278.277 103.391 274.643 106.471C279.948 111.504 290.466 111.554 290.466 111.554C290.466 111.554 300.864 83.3008 288.171 81.9218C285.504 74.7754 271.06 74.1312 263.531 79.9087" fill="#444444"/>
<path d="M284.853 90.0142H279.821C279.644 90.0142 279.475 89.9442 279.351 89.8196C279.226 89.695 279.156 89.5261 279.156 89.3499C279.159 89.1745 279.23 89.007 279.354 88.883C279.478 88.759 279.645 88.6881 279.821 88.6855H284.853C285.029 88.6855 285.198 88.7555 285.323 88.8801C285.448 89.0047 285.518 89.1737 285.518 89.3499C285.519 89.4375 285.503 89.5245 285.47 89.6057C285.437 89.6869 285.388 89.7607 285.326 89.8226C285.264 89.8846 285.19 89.9335 285.109 89.9664C285.028 89.9993 284.941 90.0155 284.853 90.0142Z" fill="#00BFE9"/>
<path d="M264.189 176.717C264.189 176.717 250.802 244.085 255.261 270.104C259.539 295.046 272.694 343.44 272.694 343.44L287.621 343.058C287.621 343.058 278.25 286.983 278.069 266.138C277.757 231.563 289.715 173.446 289.715 173.446L264.189 176.717Z" fill="#00BFE9"/>
<path d="M271.756 344.217L289.028 343.744L287.962 338.077L269.25 339.033L271.756 344.217Z" fill="#444444"/>
<path opacity="0.3" d="M276.347 184.88L282.315 174.392L289.713 173.446C289.713 173.446 284.268 199.878 280.826 227.688C276.689 214.392 275.229 191 276.347 184.88Z" fill="black"/>
<path d="M271.766 175.842C271.766 175.842 282.344 232.832 291.776 265.374C299.385 291.654 331.332 327.467 331.332 327.467L342.626 321.8C342.626 321.8 321.187 282.122 315.872 264.266C298.872 207.135 312.168 186.37 299.003 172.249L271.766 175.842Z" fill="#00BFE9"/>
<path d="M331.452 330.948L344.749 324.083L342.756 318.416L328.07 326.569L331.452 330.948Z" fill="#444444"/>
<path d="M299.305 170.106L301.318 173.025C301.469 173.246 301.217 173.538 300.815 173.588L264.247 178.279C263.935 178.279 263.653 178.198 263.613 177.997L262.898 174.917C262.898 174.706 263.1 174.484 263.442 174.444L298.741 169.914C298.844 169.898 298.949 169.907 299.047 169.94C299.145 169.973 299.234 170.03 299.305 170.106Z" fill="#00BFE9"/>
<path opacity="0.4" d="M299.305 170.106L301.318 173.025C301.469 173.246 301.217 173.538 300.815 173.588L264.247 178.279C263.935 178.279 263.653 178.198 263.613 177.997L262.898 174.917C262.898 174.706 263.1 174.484 263.442 174.444L298.741 169.914C298.844 169.898 298.949 169.907 299.047 169.94C299.145 169.973 299.234 170.03 299.305 170.106Z" fill="white"/>
<path d="M295.065 174.694L296.011 174.563C296.203 174.563 296.333 174.432 296.303 174.312L295.297 170.285C295.297 170.165 295.095 170.094 294.904 170.114L293.958 170.235C293.777 170.235 293.646 170.376 293.666 170.497L294.673 174.523C294.703 174.634 294.914 174.714 295.065 174.694Z" fill="#444444"/>
<path d="M266.911 178.297L267.857 178.176C268.039 178.176 268.169 178.035 268.149 177.925L267.143 173.898C267.143 173.778 266.931 173.697 266.75 173.727L265.804 173.848C265.613 173.848 265.482 173.989 265.512 174.1L266.519 178.126C266.539 178.247 266.73 178.327 266.911 178.297Z" fill="#444444"/>
<path d="M280.986 176.497L281.932 176.376C282.123 176.376 282.254 176.235 282.224 176.114L281.268 172.088C281.268 171.977 281.056 171.897 280.875 171.917L279.929 172.038C279.738 172.038 279.607 172.179 279.637 172.299L280.593 176.326C280.624 176.446 280.825 176.517 280.986 176.497Z" fill="#444444"/>
<path d="M272.088 94.946C271.957 95.6304 271.484 96.1135 271.081 96.0229C270.679 95.9323 270.377 95.3184 270.507 94.6339C270.638 93.9495 271.111 93.4563 271.514 93.5469C271.917 93.6375 272.219 94.2615 272.088 94.946Z" fill="#444444"/>
<path d="M264.338 93.4574C264.208 94.1419 263.745 94.625 263.332 94.5344C262.919 94.4438 262.627 93.8298 262.758 93.1454C262.889 92.4609 263.362 91.9678 263.815 92.0583C264.268 92.1489 264.479 92.7629 264.338 93.4574Z" fill="#444444"/>
<path d="M263.966 92.1276L262.406 91.3425C262.406 91.3425 263 92.7919 263.966 92.1276Z" fill="#444444"/>
<path d="M266.391 94.9875C265.48 96.4329 264.376 97.7469 263.109 98.8929C263.411 99.2103 263.777 99.4584 264.184 99.62C264.591 99.7817 265.028 99.853 265.465 99.829L266.391 94.9875Z" fill="#FF5652"/>
<path d="M268.085 103.241C268.052 103.22 268.026 103.19 268.01 103.154C267.994 103.118 267.989 103.078 267.995 103.04C268.005 102.985 268.035 102.937 268.081 102.905C268.126 102.873 268.182 102.86 268.236 102.868C269.084 103.054 269.965 103.035 270.804 102.815C271.644 102.595 272.42 102.178 273.068 101.6C273.107 101.563 273.159 101.542 273.214 101.542C273.268 101.542 273.32 101.563 273.36 101.6C273.379 101.618 273.395 101.64 273.405 101.664C273.416 101.688 273.421 101.715 273.421 101.741C273.421 101.768 273.416 101.794 273.405 101.818C273.395 101.842 273.379 101.864 273.36 101.882C272.667 102.517 271.831 102.976 270.923 103.218C270.015 103.459 269.062 103.478 268.146 103.271C268.123 103.268 268.102 103.257 268.085 103.241Z" fill="#444444"/>
<path d="M274.783 92.8307C274.72 92.7924 274.671 92.7363 274.642 92.6697C274.428 92.2019 274.107 91.7912 273.705 91.4711C273.303 91.1509 272.83 90.9305 272.327 90.8277C272.273 90.8227 272.22 90.8069 272.173 90.7813C272.125 90.7556 272.083 90.7206 272.049 90.6783C272.015 90.636 271.99 90.5873 271.976 90.5352C271.961 90.483 271.957 90.4284 271.964 90.3747C271.979 90.268 272.035 90.171 272.119 90.1036C272.203 90.0363 272.31 90.0036 272.417 90.0124C273.06 90.1266 273.664 90.3951 274.18 90.7949C274.695 91.1946 275.106 91.7137 275.376 92.3073C275.426 92.4048 275.434 92.5177 275.4 92.6215C275.366 92.7253 275.293 92.8113 275.195 92.8609C275.129 92.8907 275.057 92.9036 274.985 92.8983C274.913 92.893 274.843 92.8698 274.783 92.8307Z" fill="#444444"/>
<path d="M261.627 89.4117V89.3413C261.611 89.2904 261.606 89.2369 261.611 89.184C261.617 89.1311 261.632 89.0798 261.658 89.033C261.683 88.9862 261.717 88.9449 261.759 88.9114C261.8 88.8779 261.847 88.853 261.899 88.838C262.517 88.632 263.176 88.5794 263.82 88.6846C264.463 88.7898 265.072 89.0497 265.592 89.4419C265.677 89.5127 265.729 89.6139 265.739 89.7234C265.748 89.8329 265.714 89.9416 265.643 90.0257C265.572 90.1098 265.471 90.1623 265.361 90.1718C265.252 90.1812 265.143 90.1468 265.059 90.076C264.645 89.7701 264.164 89.5691 263.655 89.4902C263.147 89.4113 262.627 89.4569 262.14 89.6231C262.043 89.6557 261.938 89.6523 261.844 89.6135C261.749 89.5746 261.672 89.503 261.627 89.4117Z" fill="#444444"/>
<path d="M302.132 128.201C303.279 129.439 304.235 130.567 305.212 131.795C306.188 133.022 307.124 134.22 308.04 135.458C309.842 137.955 311.543 140.491 313.073 143.199C314.665 145.878 316.087 148.655 317.33 151.513C317.663 152.227 317.934 152.972 318.236 153.697C318.538 154.421 318.82 155.156 319.072 155.911C319.323 156.666 319.585 157.371 319.847 158.206L320.209 159.555L320.471 160.893C320.92 164.245 320.801 167.647 320.119 170.959C319.49 174.049 318.598 177.08 317.451 180.018C316.328 182.874 315.061 185.673 313.657 188.402C312.247 191.106 310.695 193.734 309.006 196.273L305.222 194.039C306.41 191.482 307.577 188.775 308.574 186.087C309.614 183.424 310.518 180.71 311.281 177.954C312.043 175.29 312.598 172.571 312.942 169.821C313.094 168.515 313.168 167.201 313.163 165.886C313.139 164.666 313.008 163.45 312.771 162.252L312.57 161.427L312.318 160.642C312.117 160.078 311.815 159.384 311.563 158.77C311.311 158.156 311.03 157.501 310.728 156.867C310.426 156.233 310.164 155.609 309.832 154.995C308.594 152.499 307.134 150.093 305.665 147.688C304.195 145.282 302.544 142.977 300.843 140.712C300.008 139.565 299.142 138.438 298.257 137.33C297.371 136.223 296.445 135.106 295.609 134.15L302.132 128.201Z" fill="#FF8B7B"/>
<path d="M306.992 191.624L300.047 195.016L307.173 200.582C307.173 200.582 310.263 196.858 310.132 193.265L306.992 191.624Z" fill="#FF8B7B"/>
<path d="M296.75 201.902L302.809 205.042L307.127 200.583L300.001 195.017L296.75 201.902Z" fill="#FF8B7B"/>
<path d="M298.549 119.394C302.867 119.978 309.39 132.036 309.39 132.036L298.408 142.827C298.408 142.827 289.994 133.234 290.215 127.628C290.417 122.867 293.044 118.66 298.549 119.394Z" fill="#00BFE9"/>
<g opacity="0.5">
<path d="M298.549 119.397C302.867 119.981 309.39 132.039 309.39 132.039L298.408 142.829C298.408 142.829 289.994 133.237 290.215 127.631C290.417 122.87 293.044 118.663 298.549 119.397Z" fill="white"/>
</g>
<path d="M335.18 340.209C335.134 340.215 335.086 340.215 335.039 340.209C334.847 340.156 334.672 340.054 334.531 339.912C334.39 339.771 334.288 339.596 334.234 339.404C334.186 339.291 334.17 339.166 334.186 339.044C334.201 338.922 334.249 338.807 334.325 338.709C335.009 337.834 338.129 338.126 338.482 338.156C338.522 338.161 338.56 338.178 338.591 338.205C338.621 338.232 338.643 338.267 338.653 338.307C338.663 338.344 338.663 338.384 338.652 338.421C338.642 338.458 338.621 338.492 338.592 338.518C337.727 339.203 336.187 340.31 335.18 340.209ZM337.938 338.498C336.69 338.418 335.009 338.498 334.647 338.931C334.62 338.977 334.606 339.029 334.606 339.082C334.606 339.135 334.62 339.187 334.647 339.233C334.678 339.363 334.743 339.482 334.835 339.579C334.927 339.677 335.042 339.748 335.17 339.786C335.684 339.887 336.72 339.414 337.908 338.448L337.938 338.498Z" fill="#00BFE9"/>
<path d="M338.195 338.467C337.189 338.316 335.176 337.461 334.944 336.575C334.897 336.419 334.905 336.252 334.968 336.101C335.03 335.951 335.143 335.826 335.286 335.75C335.413 335.654 335.56 335.59 335.715 335.562C335.871 335.534 336.031 335.543 336.182 335.589C337.4 335.89 338.568 338.095 338.618 338.185C338.636 338.218 338.645 338.254 338.645 338.291C338.645 338.328 338.636 338.364 338.618 338.397C338.598 338.426 338.571 338.449 338.539 338.465C338.507 338.481 338.472 338.489 338.437 338.487L338.195 338.467ZM336.001 335.971C335.917 335.957 335.831 335.959 335.748 335.978C335.666 335.997 335.587 336.032 335.518 336.082C335.307 336.233 335.307 336.364 335.337 336.454C335.508 337.038 337.018 337.823 338.054 338.034C337.632 337.32 336.816 336.162 336.041 336.021L336.001 335.971Z" fill="#00BFE9"/>
<path d="M273.001 355.156C272.297 355.207 271.595 355.042 270.988 354.683C270.831 354.565 270.704 354.413 270.615 354.239C270.526 354.065 270.478 353.872 270.474 353.676C270.459 353.568 270.475 353.458 270.519 353.359C270.564 353.259 270.635 353.174 270.726 353.113C271.662 352.489 275.155 354.119 275.849 354.401C275.887 354.418 275.918 354.447 275.938 354.483C275.958 354.52 275.966 354.561 275.96 354.602C275.956 354.646 275.939 354.687 275.91 354.72C275.881 354.753 275.842 354.775 275.799 354.784C274.881 355.002 273.944 355.127 273.001 355.156ZM271.37 353.385C271.23 353.375 271.09 353.407 270.967 353.475C270.938 353.497 270.915 353.526 270.901 353.56C270.886 353.593 270.882 353.63 270.887 353.666C270.89 353.801 270.924 353.933 270.987 354.051C271.05 354.17 271.14 354.273 271.249 354.351C271.853 354.804 273.262 354.864 275.104 354.532C273.927 353.957 272.667 353.57 271.37 353.385Z" fill="#00BFE9"/>
<path d="M275.791 354.804H275.711C274.553 354.331 272.218 352.458 272.349 351.482C272.349 351.271 272.52 351.009 273.054 350.949C275.067 350.707 275.952 354.411 275.993 354.562C276.002 354.6 276 354.64 275.988 354.678C275.975 354.715 275.953 354.748 275.922 354.773C275.883 354.798 275.837 354.809 275.791 354.804ZM273.235 351.331H273.104C272.882 351.331 272.772 351.422 272.752 351.522C272.681 352.086 274.292 353.535 275.479 354.21C275.187 353.294 274.443 351.331 273.215 351.331H273.235Z" fill="#00BFE9"/>
<path d="M271.706 93.6079L270.156 92.8228C270.156 92.8228 270.76 94.2822 271.706 93.6079Z" fill="#444444"/>
<path d="M117.602 355.316L125.684 355.195L127.536 336.453L119.464 336.574L117.602 355.316Z" fill="#B55B52"/>
<path d="M77.6016 355.349H85.6841L88.8546 336.637H80.7822L77.6016 355.349Z" fill="#B55B52"/>
<path d="M86.8043 354.41H76.9503C76.7904 354.411 76.6354 354.466 76.511 354.567C76.3866 354.668 76.3002 354.807 76.2659 354.964L74.6655 362.15C74.6291 362.325 74.6327 362.506 74.6758 362.679C74.719 362.853 74.8007 363.014 74.9149 363.151C75.029 363.289 75.1726 363.399 75.3351 363.473C75.4976 363.547 75.6747 363.583 75.8532 363.58C79.0238 363.529 81.3288 363.338 85.3247 363.338C87.7807 363.338 95.1888 363.6 98.5808 363.6C101.973 363.6 102.416 360.248 101.027 359.936C94.7962 358.577 90.1058 356.705 88.1128 354.903C87.7496 354.588 87.2854 354.413 86.8043 354.41Z" fill="#444444"/>
<path d="M125.613 354.301L116.785 354.441C116.626 354.441 116.472 354.496 116.349 354.597C116.226 354.698 116.142 354.839 116.111 354.995L114.621 362.202C114.583 362.376 114.585 362.558 114.627 362.731C114.669 362.905 114.751 363.067 114.866 363.204C114.981 363.341 115.125 363.45 115.289 363.522C115.452 363.595 115.63 363.628 115.809 363.621C118.99 363.52 123.59 363.259 127.586 363.198C132.266 363.128 136.312 363.319 141.788 363.198C145.109 363.148 145.975 359.786 144.586 359.504C138.245 358.216 133.081 358.146 127.565 354.864C126.979 354.501 126.303 354.306 125.613 354.301Z" fill="#444444"/>
<path d="M131.689 109.268C134.286 114.129 137.034 119.132 139.801 123.973C142.569 128.815 145.458 133.626 148.538 138.065C148.911 138.639 149.313 139.162 149.706 139.695L150.29 140.491L150.551 140.853L150.652 140.994C150.903 141.358 151.252 141.644 151.658 141.819C152.746 142.292 155.04 142.232 157.355 141.678C159.859 141.044 162.301 140.188 164.653 139.122C165.881 138.568 167.129 138.015 168.347 137.39C169.565 136.766 170.813 136.102 171.94 135.498L175.695 140.269C174.547 141.407 173.45 142.363 172.262 143.289C171.075 144.215 169.897 145.191 168.629 146.057C166.03 147.898 163.231 149.438 160.285 150.647C158.659 151.296 156.973 151.781 155.252 152.096C153.211 152.451 151.121 152.421 149.092 152.005C146.702 151.505 144.505 150.332 142.761 148.623C142.539 148.412 142.338 148.191 142.137 147.969L141.724 147.496L140.969 146.61C140.466 146.027 139.963 145.433 139.489 144.839C135.795 140.165 132.393 135.267 129.303 130.174C126.284 125.141 123.405 120.108 120.758 114.764L131.689 109.268Z" fill="#B65B52"/>
<path d="M117.291 109.51C115.107 116.918 130.446 137.119 130.446 137.119L145.947 127.175C143.037 120.769 139.447 114.695 135.238 109.057C128.836 100.934 119.677 101.377 117.291 109.51Z" fill="#00BFE9"/>
<path opacity="0.2" d="M117.291 109.51C115.107 116.918 130.446 137.119 130.446 137.119L145.947 127.175C143.037 120.769 139.447 114.695 135.238 109.057C128.836 100.934 119.677 101.377 117.291 109.51Z" fill="white"/>
<path opacity="0.2" d="M126.708 118.206C129.889 119.565 134.569 127.265 137.005 132.902L130.442 137.119C126.776 132.217 123.479 127.049 120.578 121.659C122.652 119.384 125.027 117.492 126.708 118.206Z" fill="black"/>
<path d="M171.273 135.884L176.91 132.532L181.741 140.927C181.741 140.927 175.471 144.601 171.414 140.333L171.273 135.884Z" fill="#B55B52"/>
<path d="M184.787 132.613L187.314 139.085L181.738 140.927L176.906 132.532L184.787 132.613Z" fill="#B55B52"/>
<path opacity="0.2" d="M127.539 336.453L126.582 346.116L118.5 346.247L119.456 336.584L127.539 336.453Z" fill="black"/>
<path opacity="0.2" d="M80.7735 336.646H88.856L87.2153 346.288H79.1328L80.7735 336.646Z" fill="black"/>
<path d="M81.2734 106.228C89.9699 136.887 88.5708 169.479 89.0942 176.142L132.275 174.522C139.612 128.775 126.437 103.309 126.437 103.309C126.437 103.309 123.669 102.776 119.904 102.383C118.717 102.262 117.448 102.162 116.12 102.091C115.385 102.091 114.64 102.021 113.885 102.011C107.776 102.104 101.676 102.544 95.6166 103.329C94.4591 103.47 93.2915 103.651 92.1642 103.833C91.0368 104.014 90.0806 104.205 89.1446 104.396C84.6655 105.272 81.2734 106.228 81.2734 106.228Z" fill="#00BFE9"/>
<path opacity="0.2" d="M81.2734 106.228C89.9699 136.887 88.5708 169.479 89.0942 176.142L132.275 174.522C139.612 128.775 126.437 103.309 126.437 103.309C126.437 103.309 123.669 102.776 119.904 102.383C118.717 102.262 117.448 102.162 116.12 102.091C115.385 102.091 114.64 102.021 113.885 102.011C107.776 102.104 101.676 102.544 95.6166 103.329C94.4591 103.47 93.2915 103.651 92.1642 103.833C91.0368 104.014 90.0806 104.205 89.1446 104.396C84.6655 105.272 81.2734 106.228 81.2734 106.228Z" fill="white"/>
<path opacity="0.2" d="M90.4655 119.395C91.2406 122.364 90.3548 135.912 87.2547 139.254C86.8319 134.916 86.2481 130.386 85.5234 125.756L90.4655 119.395Z" fill="black"/>
<path d="M116.427 102.072H116.115C115.38 102.072 114.635 102.002 113.88 101.992C107.753 102.097 101.637 102.55 95.5613 103.351C94.6755 103.461 93.7897 103.592 92.9141 103.733L94.2528 104.881C98.2185 108.273 102.839 111.413 109.683 111.413H110.559C114.051 111.272 116.286 110.135 117.222 108.011C117.573 107.03 117.684 105.978 117.545 104.945C117.407 103.912 117.023 102.927 116.427 102.072Z" fill="white"/>
<path d="M95.8521 82.5342C97.4425 88.3419 99.3952 99.0615 95.5703 103.299C99.0127 106.248 103.472 109.61 110.487 109.338C117.503 109.066 115.922 104.306 113.889 101.94C107.196 100.853 107.005 95.9614 107.85 91.3011L95.8521 82.5342Z" fill="#B55B52"/>
<path opacity="0.2" d="M100.723 86.1482L107.769 91.3319C107.568 92.4178 107.46 93.5189 107.447 94.6232C104.91 94.4421 101.256 91.9458 100.793 89.3389C100.575 88.2886 100.551 87.2071 100.723 86.1482Z" fill="black"/>
<path d="M112.909 76.928C115.204 79.2632 119.421 66.5305 114.922 63.4404C110.423 60.3504 101.656 65.4233 112.909 76.928Z" fill="#444444"/>
<path d="M94.485 73.7475C95.5721 81.6891 95.8036 86.3996 100.142 90.1943C106.664 95.9013 116.246 91.5128 117.555 83.4102C118.733 76.1128 116.76 64.3464 108.717 61.7496C106.945 61.1684 105.054 61.0499 103.223 61.4054C101.392 61.7609 99.6824 62.5785 98.2564 63.7806C96.8303 64.9828 95.7353 66.5295 95.0752 68.2739C94.4152 70.0183 94.212 71.9025 94.485 73.7475Z" fill="#B55B52"/>
<path d="M95.5215 80.9434C98.1284 82.9565 100.413 69.7004 95.5215 67.3149C90.6297 64.9294 82.6378 71.2505 95.5215 80.9434Z" fill="#444444"/>
<path d="M92.4575 69.1182C100.117 71.7452 121.647 69.2994 117.842 53.6276C116.222 46.8637 108.894 52.621 108.391 56.3654C104.647 53.2854 97.6915 53.9597 98.5068 58.8817C94.4706 57.7041 79.2115 61.398 92.4575 69.1182Z" fill="#444444"/>
<path d="M91.5305 82.8166C92.1281 83.6276 92.8806 84.3121 93.7445 84.8304C94.6083 85.3487 95.5664 85.6906 96.5632 85.8362C99.2104 86.2187 100.187 83.7627 99.1601 81.4477C98.2341 79.3642 95.7479 76.6566 93.2316 77.341C90.7152 78.0255 90.0811 80.8136 91.5305 82.8166Z" fill="#B55B52"/>
<path d="M129.579 344.234L115.9 344.446C115.9 344.446 120.459 290.405 119.231 265.262C118.859 257.612 117.319 246.912 115.296 235.448C112.749 220.994 111.521 215.237 108.25 196.978C105.895 183.954 103.922 175.579 103.922 175.579L132.306 174.512C132.306 174.512 141.053 238.045 140.781 262.695C140.469 288.301 129.579 344.234 129.579 344.234Z" fill="#444444"/>
<path opacity="0.2" d="M113.739 192.248C118.832 204.93 118.933 234.643 116.588 243.008C116.185 240.532 115.752 237.975 115.3 235.418C112.743 220.965 111.515 215.207 108.254 196.949C108.193 196.586 108.123 196.234 108.062 195.882C109.731 194.352 111.652 193.123 113.739 192.248Z" fill="black"/>
<path d="M116.967 175.056C116.967 175.056 111.813 242.021 108.019 265.393C103.872 290.979 90.968 344.416 90.968 344.416H76.1719C76.1719 344.416 81.0536 296.102 84.0833 270.939C87.5256 242.353 89.1159 176.073 89.1159 176.073L116.967 175.056Z" fill="#444444"/>
<path d="M92.7435 344.739H75.3203V339.535L94.7968 339.193L92.7435 344.739Z" fill="#00BFE9"/>
<path opacity="0.5" d="M92.7435 344.739H75.3203V339.535L94.7968 339.193L92.7435 344.739Z" fill="white"/>
<path d="M131.3 344.496L115.005 344.748L114.914 339.484L133.132 338.92L131.3 344.496Z" fill="#00BFE9"/>
<path opacity="0.5" d="M131.3 344.496L115.005 344.748L114.914 339.484L133.132 338.92L131.3 344.496Z" fill="white"/>
<path d="M106.76 75.0774C106.76 75.7317 107.193 76.2349 107.616 76.1947C108.038 76.1544 108.34 75.6109 108.29 74.9667C108.24 74.3225 107.867 73.8192 107.434 73.8494C107.002 73.8796 106.689 74.4836 106.76 75.0774Z" fill="#444444"/>
<path d="M114.097 74.5333C114.097 75.1875 114.53 75.6807 114.963 75.6505C115.396 75.6203 115.688 75.0667 115.637 74.4225C115.587 73.7784 115.205 73.265 114.782 73.2952C114.359 73.3254 114.057 73.879 114.097 74.5333Z" fill="#444444"/>
<path d="M111.797 75.0288C112.717 76.96 113.899 78.7551 115.31 80.3635C114.894 80.7078 114.409 80.9581 113.888 81.0971C113.367 81.2362 112.822 81.2606 112.29 81.1687L111.797 75.0288Z" fill="#A02724"/>
<path d="M109.639 83.1083C108.907 83.0783 108.189 82.8985 107.529 82.58C106.87 82.2614 106.282 81.8109 105.804 81.2563C105.773 81.2149 105.76 81.163 105.768 81.1121C105.775 81.0611 105.803 81.0152 105.844 80.9845C105.886 80.9538 105.937 80.9408 105.988 80.9484C106.039 80.9559 106.085 80.9834 106.116 81.0248C106.656 81.6306 107.331 82.1004 108.086 82.396C108.842 82.6916 109.657 82.8046 110.464 82.7258C110.513 82.723 110.562 82.7392 110.599 82.771C110.637 82.8029 110.66 82.848 110.665 82.897C110.668 82.9229 110.666 82.9491 110.658 82.974C110.65 82.9989 110.637 83.022 110.62 83.0418C110.604 83.0616 110.583 83.0777 110.559 83.0891C110.536 83.1006 110.51 83.1071 110.484 83.1083C110.203 83.1285 109.92 83.1285 109.639 83.1083Z" fill="#444444"/>
<path d="M104.32 72.8716C104.254 72.8716 104.191 72.8504 104.138 72.8112C104.054 72.7574 103.993 72.6723 103.971 72.5743C103.948 72.4764 103.965 72.3735 104.018 72.2878C104.338 71.7655 104.78 71.3281 105.306 71.0127C105.832 70.6973 106.425 70.5132 107.037 70.4761C107.139 70.4761 107.236 70.5164 107.308 70.5881C107.379 70.6598 107.42 70.7571 107.42 70.8586C107.42 70.96 107.379 71.0573 107.308 71.129C107.236 71.2007 107.139 71.241 107.037 71.241C106.557 71.2787 106.092 71.4308 105.682 71.6847C105.273 71.9386 104.93 72.2869 104.682 72.7005C104.645 72.7615 104.591 72.8103 104.527 72.8407C104.462 72.8712 104.39 72.8819 104.32 72.8716Z" fill="#444444"/>
<path d="M117.079 71.7764C117.017 71.7715 116.957 71.7516 116.904 71.7182C116.851 71.6849 116.808 71.6392 116.777 71.5852C116.545 71.1631 116.218 70.8011 115.821 70.5285C115.424 70.2558 114.969 70.0799 114.492 70.015C114.39 70.015 114.293 69.9747 114.221 69.9029C114.15 69.8312 114.109 69.7339 114.109 69.6325C114.109 69.531 114.15 69.4338 114.221 69.362C114.293 69.2903 114.39 69.25 114.492 69.25C115.095 69.3199 115.672 69.5326 116.176 69.8704C116.681 70.2083 117.097 70.6616 117.391 71.1926C117.417 71.2358 117.435 71.284 117.442 71.3343C117.449 71.3845 117.446 71.4357 117.433 71.4847C117.42 71.5337 117.397 71.5795 117.365 71.6193C117.334 71.6591 117.294 71.692 117.25 71.716C117.198 71.7492 117.14 71.7699 117.079 71.7764Z" fill="#444444"/>
<path d="M89.4676 355.831C88.7545 355.811 88.0457 355.713 87.3538 355.539C87.317 355.529 87.2838 355.509 87.2587 355.48C87.2336 355.451 87.2177 355.416 87.2129 355.378C87.2075 355.341 87.2132 355.303 87.2293 355.269C87.2455 355.235 87.2713 355.206 87.3035 355.187C87.5954 355.005 90.2023 353.405 91.0981 353.858C91.1947 353.913 91.2752 353.991 91.3317 354.087C91.3882 354.182 91.4187 354.291 91.4202 354.402C91.4425 354.589 91.4183 354.778 91.3498 354.954C91.2814 355.129 91.1707 355.285 91.0277 355.408C90.5686 355.717 90.02 355.866 89.4676 355.831ZM87.9074 355.307C89.2864 355.579 90.3332 355.529 90.7761 355.156C90.875 355.075 90.951 354.969 90.9969 354.849C91.0427 354.729 91.0568 354.599 91.0377 354.472C91.0407 354.426 91.031 354.38 91.0097 354.339C90.9884 354.299 90.9564 354.264 90.917 354.24C90.454 353.959 88.9743 354.653 87.9074 355.307Z" fill="#00BFE9"/>
<path d="M87.404 355.537C87.3678 355.547 87.3295 355.547 87.2933 355.537C87.2645 355.52 87.2415 355.494 87.2272 355.464C87.2129 355.433 87.2079 355.399 87.2127 355.366C87.2127 355.265 87.4141 352.93 88.3501 352.165C88.4602 352.068 88.5902 351.996 88.731 351.954C88.8719 351.912 89.0201 351.902 89.1654 351.924C89.3076 351.923 89.4456 351.972 89.5557 352.062C89.6659 352.152 89.7414 352.277 89.7694 352.417C89.9405 353.323 88.33 355.094 87.4946 355.547L87.404 355.537ZM89.0346 352.286C88.8706 352.285 88.7122 352.346 88.5917 352.457C88.0087 353.178 87.6578 354.059 87.5852 354.983C88.4206 354.349 89.4473 352.97 89.3466 352.487C89.3466 352.437 89.3466 352.316 89.0648 352.286H88.9843H89.0346Z" fill="#00BFE9"/>
<path d="M126.422 355.369C126.389 355.355 126.361 355.333 126.34 355.305C126.319 355.277 126.305 355.243 126.301 355.208C126.293 355.171 126.297 355.132 126.313 355.097C126.33 355.062 126.357 355.034 126.392 355.017C126.764 354.816 129.985 353.125 130.971 353.648C131.064 353.699 131.143 353.773 131.199 353.863C131.255 353.953 131.288 354.056 131.294 354.161C131.317 354.334 131.298 354.509 131.238 354.672C131.179 354.835 131.08 354.981 130.951 355.098C130.076 355.893 127.761 355.611 126.452 355.369H126.422ZM130.72 353.96C130.106 353.759 128.354 354.453 127.086 355.087C128.878 355.359 130.207 355.259 130.69 354.816C130.776 354.738 130.841 354.641 130.88 354.532C130.918 354.423 130.929 354.306 130.911 354.192C130.912 354.15 130.901 354.109 130.88 354.074C130.858 354.038 130.827 354.009 130.79 353.99L130.72 353.96Z" fill="#00BFE9"/>
<path d="M126.419 355.367C126.39 355.348 126.367 355.323 126.352 355.293C126.336 355.263 126.328 355.23 126.328 355.196C126.328 355.105 126.519 352.921 127.536 352.066C127.673 351.945 127.832 351.852 128.005 351.794C128.178 351.735 128.36 351.711 128.543 351.723C129.066 351.723 129.227 352.025 129.267 352.247C129.428 353.153 127.526 354.934 126.55 355.387C126.505 355.394 126.459 355.387 126.419 355.367ZM128.714 352.106H128.522C128.382 352.093 128.241 352.109 128.107 352.154C127.974 352.2 127.851 352.272 127.747 352.368C127.162 353.08 126.81 353.955 126.741 354.874C127.747 354.26 129.016 352.861 128.915 352.317C128.895 352.287 128.834 352.156 128.714 352.106Z" fill="#00BFE9"/>
<path d="M90.2147 116.606L82.6254 133.143C81.3874 135.911 80.1191 138.659 78.9415 141.437C78.3577 142.816 77.7336 144.195 77.18 145.574L76.7472 146.581C76.6063 146.933 76.5258 147.174 76.4151 147.466C76.1836 148.03 76.0326 148.654 75.8413 149.248C75.16 151.822 74.7883 154.467 74.7342 157.129C74.6442 159.972 74.7585 162.818 75.0764 165.644C75.3884 168.523 75.8615 171.432 76.4654 174.331C77.0693 177.23 77.794 180.189 78.5791 182.937L73.013 185.352C72.1977 183.843 71.5233 182.443 70.8691 180.954C70.2148 179.464 69.6109 178.005 69.0372 176.495C67.8918 173.459 66.9436 170.352 66.1987 167.194C64.4862 160.544 64.1743 153.61 65.2828 146.832C65.4841 145.946 65.6552 145.051 65.937 144.155L66.3195 142.846L66.6919 141.709C67.1751 140.189 67.6985 138.689 68.2017 137.2C69.2687 134.18 70.3557 131.281 71.5334 128.382C73.8585 122.544 76.3849 116.888 79.2032 111.271L90.2147 116.606Z" fill="#B65B52"/>
<path d="M81.279 106.228C73.9111 108.543 66.6641 133.535 66.6641 133.535L83.7148 140.994C83.7148 140.994 89.2306 128.915 92.4012 119.454C95.8637 109.137 90.207 103.43 81.279 106.228Z" fill="#00BFE9"/>
<path opacity="0.2" d="M81.279 106.228C73.9111 108.543 66.6641 133.535 66.6641 133.535L83.7148 140.994C83.7148 140.994 89.2306 128.915 92.4012 119.454C95.8637 109.137 90.207 103.43 81.279 106.228Z" fill="white"/>
<path d="M78.1266 181.567L82.1024 188.744L72.7315 191.179C72.7315 191.179 69.8931 184.224 73.2449 182.01L78.1266 181.567Z" fill="#B55B52"/>
<path d="M82.7997 196.886L74.1939 197.601L72.7344 191.179L82.1052 188.743L82.7997 196.886Z" fill="#B55B52"/>
<path d="M251.638 228.835C251.565 231.326 250.525 233.691 248.738 235.429C246.951 237.167 244.558 238.141 242.066 238.145H216.742C218.832 241.042 220.082 244.459 220.354 248.02C220.626 251.582 219.909 255.149 218.283 258.329C216.656 261.509 214.183 264.179 211.136 266.043C208.089 267.907 204.586 268.893 201.014 268.893C197.442 268.893 193.94 267.907 190.893 266.043C187.846 264.179 185.373 261.509 183.746 258.329C182.12 255.149 181.403 251.582 181.675 248.02C181.947 244.459 183.197 241.042 185.287 238.145H159.953C157.418 238.14 154.989 237.131 153.197 235.339C151.405 233.547 150.396 231.118 150.391 228.583V146.47C150.396 143.935 151.405 141.504 153.197 139.711C154.988 137.917 157.417 136.906 159.953 136.898H242.066C244.558 136.905 246.95 137.881 248.735 139.621C250.52 141.361 251.557 143.727 251.628 146.218V171.794C248.732 169.709 245.318 168.464 241.76 168.196C238.201 167.927 234.638 168.646 231.463 170.272C228.287 171.899 225.622 174.371 223.761 177.415C221.899 180.459 220.915 183.958 220.915 187.527C220.915 191.095 221.899 194.594 223.761 197.638C225.622 200.682 228.287 203.154 231.463 204.781C234.638 206.407 238.201 207.126 241.76 206.857C245.318 206.589 248.732 205.344 251.628 203.259V228.583C251.626 228.667 251.63 228.751 251.638 228.835Z" fill="#00BFE9"/>
<path opacity="0.3" d="M201.009 265.935C197.974 265.943 194.995 265.111 192.404 263.531C189.812 261.952 187.707 259.686 186.323 256.985C184.938 254.284 184.328 251.252 184.559 248.226C184.79 245.199 185.854 242.296 187.632 239.836L190.934 235.256H159.952C158.185 235.251 156.492 234.546 155.243 233.295C153.994 232.044 153.292 230.35 153.289 228.583V146.47C153.289 144.7 153.99 143.004 155.239 141.751C156.489 140.498 158.183 139.791 159.952 139.786H242.066C243.802 139.798 245.467 140.482 246.711 141.694C247.955 142.906 248.682 144.552 248.739 146.288V166.711C248.737 166.731 248.731 166.751 248.721 166.768C248.71 166.786 248.696 166.801 248.679 166.812C248.66 166.821 248.639 166.826 248.618 166.826C248.597 166.826 248.576 166.821 248.558 166.812C245.943 165.763 243.151 165.226 240.334 165.231C237.369 165.168 234.42 165.698 231.662 166.789C228.904 167.881 226.391 169.512 224.271 171.587C222.152 173.662 220.468 176.139 219.318 178.874C218.168 181.608 217.576 184.545 217.576 187.511C217.576 190.477 218.168 193.414 219.318 196.148C220.468 198.883 222.152 201.36 224.271 203.435C226.391 205.51 228.904 207.141 231.662 208.233C234.42 209.324 237.369 209.854 240.334 209.791C243.152 209.799 245.944 209.262 248.558 208.21C248.576 208.201 248.597 208.196 248.618 208.196C248.639 208.196 248.66 208.201 248.679 208.21C248.696 208.221 248.71 208.236 248.721 208.254C248.731 208.271 248.737 208.291 248.739 208.311V228.844C248.644 230.557 247.902 232.169 246.663 233.354C245.424 234.539 243.78 235.208 242.066 235.226H211.115L214.386 239.796C214.409 239.82 214.422 239.852 214.422 239.886C214.422 239.92 214.409 239.952 214.386 239.977C214.375 239.988 214.361 239.997 214.347 240.003C214.332 240.009 214.316 240.012 214.3 240.012C214.284 240.012 214.269 240.009 214.254 240.003C214.239 239.997 214.226 239.988 214.215 239.977L210.793 235.196C210.78 235.176 210.773 235.154 210.773 235.13C210.773 235.107 210.78 235.084 210.793 235.065C210.804 235.046 210.821 235.031 210.84 235.02C210.859 235.01 210.881 235.004 210.903 235.005H242.106C243.753 234.984 245.331 234.341 246.523 233.203C247.715 232.066 248.431 230.519 248.528 228.875V208.523C245.929 209.537 243.164 210.056 240.375 210.052C237.061 210.058 233.786 209.332 230.785 207.927C227.784 206.522 225.129 204.472 223.011 201.924C220.892 199.376 219.361 196.391 218.528 193.184C217.694 189.977 217.579 186.625 218.189 183.368C218.799 180.11 220.12 177.028 222.057 174.339C223.995 171.651 226.502 169.423 229.399 167.814C232.296 166.205 235.512 165.255 238.819 165.031C242.125 164.807 245.44 165.316 248.528 166.52V146.298C248.473 144.628 247.774 143.043 246.577 141.875C245.38 140.708 243.778 140.05 242.106 140.038H159.952C159.109 140.039 158.274 140.206 157.496 140.53C156.717 140.854 156.01 141.328 155.414 141.926C154.819 142.523 154.347 143.232 154.026 144.011C153.704 144.791 153.539 145.626 153.541 146.47V228.583C153.541 230.284 154.216 231.916 155.418 233.12C156.62 234.324 158.251 235.002 159.952 235.005H191.155C191.177 235.002 191.2 235.007 191.22 235.017C191.24 235.028 191.256 235.045 191.266 235.065C191.278 235.084 191.285 235.107 191.285 235.13C191.285 235.154 191.278 235.176 191.266 235.196L187.823 239.987C185.824 242.736 184.746 246.048 184.743 249.448C184.743 253.757 186.455 257.889 189.502 260.936C192.548 263.982 196.68 265.694 200.989 265.694C205.297 265.694 209.43 263.982 212.476 260.936C215.523 257.889 217.234 253.757 217.234 249.448C217.234 249.416 217.247 249.386 217.27 249.363C217.292 249.34 217.323 249.327 217.355 249.327C217.372 249.326 217.389 249.328 217.404 249.334C217.42 249.339 217.435 249.348 217.447 249.359C217.459 249.37 217.469 249.384 217.476 249.4C217.483 249.415 217.486 249.432 217.486 249.448C217.478 253.817 215.74 258.004 212.652 261.094C209.564 264.184 205.377 265.925 201.009 265.935Z" fill="white"/>
<path d="M343.323 136.887H318.009C320.092 139.785 321.336 143.201 321.603 146.76C321.87 150.319 321.15 153.883 319.522 157.059C317.894 160.235 315.421 162.9 312.375 164.761C309.33 166.622 305.83 167.607 302.261 167.607C298.692 167.607 295.192 166.622 292.147 164.761C289.102 162.9 286.629 160.235 285.001 157.059C283.373 153.883 282.653 150.319 282.92 146.76C283.187 143.201 284.43 139.785 286.514 136.887H261.2C258.665 136.895 256.237 137.905 254.443 139.696C252.65 141.488 251.638 143.915 251.627 146.45V171.784C248.732 169.699 245.317 168.454 241.759 168.185C238.201 167.917 234.638 168.635 231.462 170.262C228.286 171.889 225.621 174.361 223.76 177.405C221.899 180.449 220.914 183.948 220.914 187.516C220.914 191.084 221.899 194.583 223.76 197.628C225.621 200.672 228.286 203.144 231.462 204.77C234.638 206.397 238.201 207.116 241.759 206.847C245.317 206.579 248.732 205.333 251.627 203.248V228.583C251.635 231.119 252.646 233.549 254.44 235.343C256.233 237.136 258.663 238.147 261.2 238.155H343.323C345.858 238.147 348.287 237.136 350.079 235.342C351.871 233.548 352.88 231.118 352.885 228.583V146.46C352.88 143.924 351.871 141.494 350.079 139.7C348.287 137.907 345.858 136.895 343.323 136.887Z" fill="#444444"/>
<path opacity="0.3" d="M343.32 235.256H261.197C259.427 235.256 257.729 234.553 256.478 233.302C255.226 232.05 254.523 230.353 254.523 228.583V197.602L249.944 200.903C247.483 202.678 244.58 203.738 241.555 203.967C238.53 204.196 235.5 203.585 232.8 202.202C230.1 200.818 227.835 198.715 226.255 196.126C224.675 193.536 223.84 190.56 223.844 187.526C223.843 187.509 223.845 187.493 223.85 187.477C223.856 187.461 223.864 187.446 223.876 187.434C223.887 187.422 223.901 187.412 223.916 187.405C223.932 187.399 223.948 187.395 223.965 187.395C224 187.395 224.033 187.409 224.057 187.434C224.082 187.458 224.096 187.491 224.096 187.526C224.092 190.513 224.913 193.443 226.469 195.993C228.025 198.543 230.255 200.614 232.913 201.977C235.571 203.339 238.554 203.942 241.532 203.717C244.511 203.492 247.369 202.448 249.793 200.702L254.574 197.259C254.593 197.247 254.615 197.24 254.637 197.239C254.66 197.238 254.683 197.242 254.703 197.252C254.723 197.263 254.741 197.278 254.753 197.297C254.766 197.316 254.773 197.337 254.775 197.36V228.563C254.775 230.266 255.452 231.899 256.656 233.103C257.86 234.308 259.494 234.984 261.197 234.984H343.32C345.023 234.984 346.657 234.308 347.861 233.103C349.065 231.899 349.742 230.266 349.742 228.563V146.459C349.739 144.757 349.062 143.125 347.858 141.922C346.654 140.718 345.022 140.04 343.32 140.038H323.27C324.594 143.453 325.066 147.139 324.645 150.778C324.224 154.416 322.923 157.897 320.853 160.919C318.784 163.942 316.009 166.414 312.769 168.122C309.529 169.83 305.921 170.723 302.258 170.723C298.596 170.723 294.988 169.83 291.748 168.122C288.508 166.414 285.733 163.942 283.664 160.919C281.594 157.897 280.293 154.416 279.871 150.778C279.45 147.139 279.923 143.453 281.247 140.038H261.197C259.494 140.04 257.863 140.718 256.659 141.922C255.455 143.125 254.778 144.757 254.775 146.459V177.662C254.774 177.686 254.767 177.71 254.755 177.731C254.742 177.752 254.725 177.77 254.705 177.783C254.684 177.793 254.662 177.798 254.639 177.798C254.617 177.798 254.594 177.793 254.574 177.783L249.793 174.341C247.042 172.344 243.73 171.27 240.331 171.271C240.299 171.271 240.268 171.258 240.246 171.235C240.223 171.213 240.21 171.182 240.21 171.15C240.209 171.133 240.211 171.116 240.217 171.1C240.222 171.085 240.231 171.07 240.242 171.058C240.253 171.046 240.267 171.036 240.283 171.029C240.298 171.022 240.314 171.019 240.331 171.019C243.783 171.017 247.147 172.105 249.944 174.129L254.523 177.431V146.459C254.526 144.69 255.23 142.995 256.481 141.744C257.732 140.493 259.428 139.789 261.197 139.786H281.428C281.45 139.787 281.471 139.793 281.491 139.803C281.51 139.814 281.526 139.829 281.539 139.847C281.546 139.864 281.55 139.883 281.55 139.902C281.55 139.921 281.546 139.94 281.539 139.957C280.493 142.579 279.96 145.378 279.969 148.201C280.093 154.028 282.494 159.574 286.659 163.651C290.824 167.729 296.42 170.012 302.248 170.012C308.077 170.012 313.673 167.729 317.838 163.651C322.002 159.574 324.404 154.028 324.528 148.201C324.537 145.378 324.004 142.579 322.958 139.957C322.948 139.94 322.943 139.921 322.943 139.902C322.943 139.882 322.948 139.863 322.958 139.847C322.97 139.828 322.986 139.813 323.005 139.802C323.025 139.792 323.047 139.786 323.069 139.786H343.3C345.069 139.789 346.765 140.493 348.016 141.744C349.267 142.995 349.971 144.69 349.973 146.459V228.583C349.971 230.348 349.269 232.041 348.023 233.292C346.776 234.542 345.086 235.248 343.32 235.256Z" fill="white"/>
</svg>
