<svg width="93" height="93" viewBox="0 0 93 93" fill="none" xmlns="http://www.w3.org/2000/svg">
<circle cx="46.5" cy="46.5" r="46.5" fill="#00BFE9"/>
<g clip-path="url(#clip0_6866_33910)">
<path d="M71.2897 48.54C70.5008 47.3208 69.162 46.5956 67.7037 46.5956C66.8829 46.5956 66.0781 46.8347 65.3848 47.2809C63.5839 48.4523 62.9623 50.7553 63.8389 52.6519L58.9222 55.9908C57.8942 54.5405 56.4997 53.3611 54.8661 52.612L58.97 40.9458C59.8306 41.1928 60.739 41.3203 61.6714 41.3203C63.9345 41.3203 66.0383 40.5792 67.7276 39.3122C67.7675 39.2803 67.7994 39.2564 67.8312 39.2245C70.2537 37.3678 71.8236 34.4513 71.8236 31.1522C71.8236 25.5581 67.2654 21 61.6714 21C57.4559 21 53.8301 23.5739 52.2922 27.2395L49.543 26.092C49.7103 25.1836 49.5748 24.2513 49.1365 23.4145C48.6265 22.4025 47.742 21.6614 46.6662 21.3108C46.2439 21.1673 45.7976 21.1036 45.3594 21.1036C44.698 21.1036 44.0286 21.263 43.423 21.5658C42.4109 22.0838 41.6698 22.9603 41.3192 24.0441C40.9686 25.1278 41.0642 26.2673 41.5822 27.2794C42.1001 28.2914 42.9767 29.0405 44.0605 29.3911C44.4828 29.5266 44.9211 29.5983 45.3594 29.5983C46.0287 29.5983 46.6901 29.4309 47.2958 29.1281C48.1006 28.7137 48.7381 28.0683 49.1445 27.2794L51.8858 28.4189C51.6308 29.2875 51.5033 30.2039 51.5033 31.1522C51.5033 32.3475 51.7104 33.487 52.085 34.5469L42.634 38.6667C40.9606 35.3597 37.5261 33.0886 33.5736 33.0886C32.2747 33.0886 31.0156 33.3356 29.8681 33.7898L27.5412 29.0166C28.3142 28.5544 28.9119 27.8452 29.2625 26.9845C29.7008 25.9247 29.6928 24.7613 29.2545 23.7014C28.6011 22.0997 27.0392 21.0637 25.302 21.0637C24.7362 21.0637 24.1784 21.1753 23.6525 21.3984C21.4611 22.2989 20.4251 24.825 21.3415 27.0084C21.7798 28.0683 22.6086 28.897 23.6684 29.3273C24.1864 29.5425 24.7442 29.6541 25.302 29.6541C25.6686 29.6541 26.0351 29.6062 26.3937 29.5106L28.7365 34.3078C25.573 36.037 23.4134 39.3919 23.4134 43.2328C23.4134 46.5159 24.9833 49.4484 27.4137 51.3052C27.4456 51.337 27.4855 51.3689 27.5253 51.3928C29.2147 52.6519 31.3105 53.393 33.5736 53.393C35.8287 53.393 37.9245 52.6519 39.6139 51.3928C39.6617 51.3689 39.7015 51.337 39.7414 51.2972C39.8769 51.1936 40.0044 51.09 40.1239 50.9784L43.2715 54.8433C41.5423 56.6681 40.4745 59.1305 40.4745 61.8398C40.4745 62.4853 40.5383 63.1148 40.6578 63.7364L36.8089 64.5811C36.2033 62.9156 34.6095 61.7602 32.7926 61.7602C32.5137 61.7602 32.2348 61.7841 31.9559 61.8398C30.8403 62.063 29.8761 62.7084 29.2386 63.6647C28.609 64.613 28.378 65.7525 28.6011 66.8602C29.0075 68.8603 30.7606 70.3027 32.7926 70.3027C33.0795 70.3027 33.3505 70.2708 33.6294 70.215C34.745 69.9919 35.7172 69.3464 36.3467 68.3981C36.8647 67.6252 37.1117 66.7167 37.0559 65.8003L40.9686 64.9477C41.6061 66.9398 42.8492 68.6611 44.4669 69.8963C44.4669 69.8963 44.4669 69.8962 44.4748 69.9042C44.5226 69.9361 44.5705 69.9759 44.6183 70.0078C46.3076 71.2589 48.3875 71.992 50.6347 71.992C52.8898 71.992 54.9856 71.2509 56.675 69.9919C56.7228 69.968 56.7626 69.9361 56.8025 69.8963C59.225 68.0395 60.7869 65.123 60.7869 61.8319C60.7869 60.1027 60.3565 58.4691 59.5836 57.0427L64.5242 53.6878C65.329 54.5962 66.4765 55.1222 67.7197 55.1222C68.5405 55.1222 69.3453 54.8752 70.0386 54.4289C70.9948 53.8153 71.6483 52.8511 71.8873 51.7355C72.1344 50.6278 71.9192 49.4883 71.2897 48.54ZM53.4317 64.1348C54.2206 63.3937 54.7067 62.3419 54.7067 61.1784C54.7067 58.9392 52.8739 57.1064 50.6347 57.1064C48.3875 57.1064 46.5626 58.9392 46.5626 61.1784C46.5626 62.3419 47.0487 63.3858 47.8376 64.1348C45.8694 64.7962 44.7219 66.1589 44.3951 68.175C43.2795 67.0833 42.4508 65.6967 42.0364 64.1508C42.0364 64.1269 42.0284 64.103 42.0284 64.087C42.0205 64.0472 42.0125 64.0153 41.9965 63.9834C41.9886 63.9755 41.9886 63.9675 41.9886 63.9595C41.8212 63.2822 41.7336 62.573 41.7336 61.8398C41.7336 56.9311 45.7259 52.9308 50.6426 52.9308C51.7822 52.9308 52.8739 53.1459 53.8779 53.5364L53.8859 53.5444H53.8939C55.7108 54.2616 57.2328 55.5605 58.2448 57.202C58.2528 57.21 58.2608 57.218 58.2608 57.2259C59.0736 58.5647 59.5437 60.1505 59.5437 61.8398C59.5437 64.3181 58.5237 66.5573 56.8822 68.183C56.5634 66.1589 55.4 64.7962 53.4317 64.1348ZM29.8442 35.1525C30.9837 34.6266 32.2428 34.3317 33.5815 34.3317C37.2472 34.3317 40.3948 36.555 41.7655 39.7186V39.7345C41.7655 39.7425 41.7734 39.7425 41.7734 39.7505C42.2356 40.8263 42.4906 42.0056 42.4906 43.2408C42.4906 45.7191 41.4706 47.9583 39.829 49.5839C39.5103 47.5598 38.3548 46.2052 36.3786 45.5358C37.1675 44.8027 37.6536 43.7508 37.6536 42.5873C37.6536 40.3402 35.8208 38.5153 33.5815 38.5153C31.3344 38.5153 29.5095 40.3402 29.5095 42.5873C29.5095 43.7508 29.9956 44.7947 30.7845 45.5437C28.8162 46.2052 27.6687 47.5598 27.342 49.5759C25.7005 47.9663 24.6805 45.727 24.6805 43.2408C24.6725 39.6628 26.8001 36.5709 29.8442 35.1525ZM61.6714 22.2511C66.5722 22.2511 70.5725 26.2434 70.5725 31.1602C70.5725 33.6305 69.5525 35.8777 67.9189 37.4953C67.5922 35.4713 66.4367 34.1245 64.4684 33.4631C65.2573 32.722 65.7434 31.6702 65.7434 30.5067C65.7434 28.2595 63.9106 26.4347 61.6714 26.4347C59.4242 26.4347 57.5994 28.2595 57.5994 30.5067C57.5994 31.6702 58.0854 32.7141 58.8744 33.4631C56.9061 34.1245 55.7586 35.4792 55.4319 37.4953C54.6031 36.6905 53.9337 35.7183 53.4715 34.6345V34.6266C53.0253 33.5588 52.7703 32.3953 52.7703 31.1602C52.7703 30.1641 52.9376 29.2078 53.2325 28.3153C53.2484 28.2755 53.2564 28.2356 53.2723 28.1958C54.4915 24.7373 57.7986 22.2511 61.6714 22.2511ZM41.0403 50.1178C42.7137 48.3089 43.7337 45.8944 43.7337 43.2408C43.7337 42.0375 43.5265 40.89 43.144 39.8222C43.144 39.8222 43.144 39.8222 43.144 39.8142L52.587 35.6944C53.2803 37.0809 54.2923 38.2922 55.5195 39.2166C55.5434 39.2484 55.5833 39.2723 55.6151 39.3042C56.2845 39.7983 57.0097 40.2206 57.7906 40.5394L53.6947 52.1578C52.7225 51.847 51.6945 51.6877 50.6347 51.6877C48.1962 51.6877 45.957 52.5563 44.1959 53.9906L41.0403 50.1178Z" fill="white"/>
</g>
<defs>
<clipPath id="clip0_6866_33910">
<rect width="51" height="51" fill="white" transform="translate(21 21)"/>
</clipPath>
</defs>
</svg>
