<svg width="93" height="93" viewBox="0 0 93 93" fill="none" xmlns="http://www.w3.org/2000/svg">
<circle cx="46.5" cy="46.5" r="46.5" fill="#00BFE9"/>
<path d="M46.3055 41.0702C43.8443 41.4181 41.6947 43.7287 41.6739 43.7495C41.643 43.7815 41.6081 43.8094 41.5701 43.8326C38.2262 46.0029 36.3414 44.3518 36.2635 44.2531C34.1243 42.3268 36.087 39.0972 36.1701 38.9622C37.0463 37.5057 38.1075 36.1688 39.327 34.9849H30.2456L26.3047 47.9864C26.347 48.0099 26.3855 48.0396 26.4189 48.0747C32.5355 54.9908 40.6562 61.1281 43.8599 63.4439C44.1933 63.6904 44.6079 63.8012 45.0198 63.7536C45.4318 63.7061 45.8103 63.5039 46.0788 63.1879C46.3472 62.8719 46.4857 62.4657 46.4661 62.0515C46.4465 61.6373 46.2703 61.246 45.9732 60.9568L41.5649 56.5485C41.4682 56.4512 41.4139 56.3196 41.4139 56.1825C41.4139 56.0453 41.4682 55.9137 41.5649 55.8164C41.6132 55.7677 41.6706 55.7291 41.7339 55.7027C41.7971 55.6764 41.865 55.6628 41.9335 55.6628C42.0021 55.6628 42.0699 55.6764 42.1332 55.7027C42.1965 55.7291 42.2539 55.7677 42.3022 55.8164L44.6491 58.1633L46.726 60.2402L47.7645 61.3047C48.137 61.6675 48.6369 61.87 49.1569 61.8687C49.6769 61.8674 50.1757 61.6625 50.5465 61.2979C50.9172 60.9333 51.1304 60.4379 51.1403 59.918C51.1502 59.398 50.9561 58.8949 50.5995 58.5164L46.5547 54.2951L45.7862 53.5006C45.7376 53.4524 45.6989 53.3949 45.6726 53.3317C45.6462 53.2684 45.6326 53.2005 45.6326 53.132C45.6326 53.0634 45.6462 52.9956 45.6726 52.9323C45.6989 52.869 45.7376 52.8116 45.7862 52.7633C45.8345 52.7147 45.8919 52.676 45.9552 52.6497C46.0185 52.6233 46.0863 52.6097 46.1549 52.6097C46.2234 52.6097 46.2913 52.6233 46.3546 52.6497C46.4178 52.676 46.4753 52.7147 46.5235 52.7633L52.4272 58.8902C52.7131 59.1732 53.0749 59.367 53.4689 59.4482C53.8628 59.5294 54.2718 59.4945 54.6463 59.3477C55.0207 59.2009 55.3445 58.9485 55.5783 58.6212C55.8121 58.2939 55.9458 57.9057 55.9632 57.5039C55.9718 57.2208 55.9207 56.9391 55.8134 56.677C55.7061 56.4149 55.5448 56.1783 55.3401 55.9826L51.7989 52.5556L49.3326 50.162C49.2777 50.1162 49.2328 50.0595 49.2008 49.9956C49.1688 49.9316 49.1504 49.8617 49.1467 49.7903C49.143 49.7189 49.154 49.6475 49.1792 49.5806C49.2043 49.5137 49.243 49.4527 49.2929 49.4014C49.3427 49.3501 49.4026 49.3097 49.4688 49.2826C49.535 49.2556 49.6061 49.2425 49.6775 49.2442C49.749 49.2459 49.8194 49.2623 49.8842 49.2925C49.9491 49.3227 50.007 49.3659 50.0543 49.4195L57.0639 56.2058C57.2478 56.3946 57.4679 56.5443 57.7111 56.6458C57.9543 56.7472 58.2156 56.7984 58.4791 56.7962C58.7426 56.794 59.003 56.7384 59.2445 56.6329C59.4859 56.5274 59.7036 56.3741 59.8842 56.1822C60.0649 55.9904 60.2048 55.7639 60.2956 55.5165C60.3864 55.2691 60.4261 55.0059 60.4125 54.7427C60.3988 54.4795 60.332 54.2218 60.2161 53.9852C60.1001 53.7485 59.9375 53.5378 59.738 53.3656L46.3055 41.0702Z" fill="white"/>
<path d="M28.6662 31.9421C25.9707 30.7302 23.0314 30.158 20.0781 30.2702V50.6344H23.2506C23.5892 50.6352 23.9189 50.5256 24.1896 50.3223C24.4604 50.119 24.6575 49.833 24.7512 49.5077L29.5177 33.8113C29.6267 33.4495 29.6004 33.0603 29.4437 32.7165C29.2871 32.3726 29.0107 32.0973 28.6662 31.9421Z" fill="white"/>
<path d="M47.9923 32.9496C46.8725 32.4886 45.6213 32.4609 44.4823 32.8717C42.4936 33.5986 39.5911 35.3432 37.0417 39.5074C37.0417 39.5386 35.4476 42.1036 36.9482 43.4848C37.0001 43.5315 38.3398 44.653 40.9359 42.9967C41.3098 42.6073 43.6515 40.2603 46.419 40.0059C46.4905 39.9999 46.5625 40.0088 46.6304 40.032C46.6984 40.0553 46.7607 40.0924 46.8136 40.1409L60.4226 52.6024C60.4849 52.6596 60.5421 52.7219 60.5992 52.7842C62.1569 52.5453 63.1953 51.1226 63.4965 50.6034L58.5638 37.1605L47.9923 32.9496Z" fill="white"/>
<path d="M68.8836 32.7471C65.9219 32.7274 62.9845 33.2811 60.2332 34.3775C59.8632 34.536 59.5689 34.8317 59.4121 35.2024C59.2553 35.5731 59.2481 35.9902 59.392 36.3661L65.1711 52.0936C65.2839 52.397 65.4864 52.6589 65.7516 52.8444C66.0169 53.0299 66.3324 53.1302 66.6561 53.1321H69.922V32.7731C69.6624 32.7575 69.3041 32.7471 68.8836 32.7471Z" fill="white"/>
</svg>
