<svg width="93" height="93" viewBox="0 0 93 93" fill="none" xmlns="http://www.w3.org/2000/svg">
<circle cx="46.5" cy="46.5" r="46.5" fill="#00BFE9"/>
<g clip-path="url(#clip0_6866_33919)">
<path d="M41.8683 58.0909C41.8683 49.1431 49.1504 41.8636 58.0992 41.8636C59.897 41.8636 61.695 42.1738 63.4453 42.785C63.5698 42.8281 63.6989 42.8496 63.828 42.8496C63.8461 42.8507 63.862 42.8496 63.8733 42.8496C64.5141 42.8496 65.0326 42.3311 65.0326 41.6904C65.0326 41.549 65.0077 41.4131 64.9624 41.2875C64.068 29.8844 54.4966 21 43.0277 21C30.8817 21 21 30.8795 21 43.0228C21 54.6012 30.0574 64.2442 41.6214 64.9764C41.644 64.9775 41.669 64.9787 41.6939 64.9787C42.0562 64.9787 42.3982 64.8101 42.6178 64.5203C42.8533 64.2112 42.9167 63.8049 42.7876 63.4382C42.1785 61.6893 41.8683 59.8895 41.8683 58.0909ZM36.8877 50.7968C36.6613 51.0231 36.3647 51.1363 36.0681 51.1363C35.7716 51.1363 35.475 51.0231 35.2486 50.7968C34.7958 50.344 34.7958 49.6105 35.2486 49.1578L41.8637 42.5428V29.1137C41.8637 28.473 42.3821 27.9545 43.0228 27.9545C43.6635 27.9545 44.1819 28.473 44.1819 29.1137V43.0228C44.1819 43.3306 44.0597 43.625 43.8423 43.8423L36.8877 50.7968Z" fill="white"/>
<path d="M58.0888 44.1816C50.4189 44.1816 44.1797 50.4209 44.1797 58.0907C44.1797 65.7606 50.4189 71.9998 58.0888 71.9998C65.7587 71.9998 71.9979 65.7606 71.9979 58.0907C71.9979 50.4209 65.7588 44.1816 58.0888 44.1816ZM57.5093 56.9317H58.6684C60.9051 56.9317 62.7252 58.7519 62.7252 60.9885C62.7252 63.0268 61.2089 64.7027 59.2479 64.9867V66.2044C59.2479 66.8451 58.7295 67.3635 58.0888 67.3635C57.4481 67.3635 56.9297 66.8451 56.9297 66.2044V65.0453H54.6115C53.9708 65.0453 53.4524 64.5269 53.4524 63.8862C53.4524 63.2455 53.9708 62.727 54.6115 62.727H58.6683C59.626 62.727 60.4069 61.9471 60.4069 60.9884C60.4069 60.0296 59.6259 59.2498 58.6683 59.2498H57.5093C55.2726 59.2498 53.4525 57.4296 53.4525 55.193C53.4525 53.1546 54.9688 51.4788 56.9298 51.1948V49.9771C56.9298 49.3364 57.4482 48.8179 58.0889 48.8179C58.7296 48.8179 59.2479 49.3365 59.2479 49.9772V51.1363H61.5661C62.2068 51.1363 62.7252 51.6547 62.7252 52.2954C62.7252 52.9361 62.2068 53.4546 61.5661 53.4546H57.5093C56.5516 53.4546 55.7706 54.2344 55.7706 55.1932C55.7706 56.1519 56.5517 56.9317 57.5093 56.9317Z" fill="white"/>
</g>
<defs>
<clipPath id="clip0_6866_33919">
<rect width="51" height="51" fill="white" transform="translate(21 21)"/>
</clipPath>
</defs>
</svg>
