<svg width="93" height="93" viewBox="0 0 93 93" fill="none" xmlns="http://www.w3.org/2000/svg">
<circle cx="46.5" cy="46.5" r="46.5" fill="#00BFE9"/>
<path d="M69.6562 69.0703H68.0414V39.7523C68.0414 39.4289 67.7789 39.1664 67.4555 39.1664H60.943C60.6195 39.1664 60.357 39.4289 60.357 39.7523V69.0703H57.1039V52.2523C57.1039 51.9289 56.8414 51.6664 56.518 51.6664H50.0055C49.682 51.6664 49.4195 51.9289 49.4195 52.2523V69.0703H46.1664V46.0023C46.1664 45.6789 45.9039 45.4164 45.5805 45.4164H39.068C38.7445 45.4164 38.482 45.6789 38.482 46.0023V69.0703H35.2289V56.9398C35.2289 56.6164 34.9664 56.3539 34.643 56.3539H28.1305C27.807 56.3539 27.5445 56.6164 27.5445 56.9398V69.0703H24.9297V24.3438C24.9297 24.0203 24.6672 23.7578 24.3438 23.7578C24.0203 23.7578 23.7578 24.0203 23.7578 24.3438V69.6562C23.7578 69.9797 24.0203 70.2422 24.3438 70.2422H69.6562C69.9797 70.2422 70.2422 69.9797 70.2422 69.6562C70.2422 69.3328 69.9797 69.0703 69.6562 69.0703Z" fill="white"/>
<path d="M31.3906 50.7109C33.0062 50.7109 34.3203 49.3961 34.3203 47.7812C34.3203 47.1891 34.1406 46.6391 33.8375 46.1781L40.3656 38.9117C40.8914 39.4117 41.5977 39.7234 42.3789 39.7234C43.3547 39.7234 44.2141 39.2391 44.7469 38.5039L50.6102 42.657C50.4391 43.0289 50.3367 43.4391 50.3367 43.875C50.3367 45.4898 51.6508 46.8047 53.2664 46.8047C54.882 46.8047 56.1961 45.4898 56.1961 43.875C56.1961 43.3852 56.0641 42.9297 55.85 42.5234L63.3469 32.568C63.6195 32.6523 63.9039 32.7109 64.2039 32.7109C65.8195 32.7109 67.1336 31.3961 67.1336 29.7812C67.1336 28.1664 65.8195 26.8516 64.2039 26.8516C62.5883 26.8516 61.2742 28.1664 61.2742 29.7812C61.2742 30.6711 61.6813 31.4602 62.3102 31.9977L55.0828 41.5945C54.582 41.1945 53.9555 40.9453 53.2664 40.9453C52.5102 40.9453 51.8266 41.2414 51.3062 41.7133L45.2391 37.4156C45.2828 37.2148 45.3086 37.007 45.3086 36.7938C45.3086 35.1789 43.9945 33.8641 42.3789 33.8641C40.7633 33.8641 39.4492 35.1789 39.4492 36.7938C39.4492 37.1945 39.5312 37.5766 39.6773 37.925L33.0117 45.3445C32.5469 45.0344 31.9906 44.8523 31.3906 44.8523C29.775 44.8523 28.4609 46.1672 28.4609 47.782C28.4609 49.3969 29.775 50.7109 31.3906 50.7109Z" fill="white"/>
</svg>
